<svg width="24" height="24" viewBox="0 0 24 24" fill="none" xmlns="http://www.w3.org/2000/svg">
<g clip-path="url(#clip0_1_2414)">
<path d="M0.734672 18.7102V4.26119H5.72062V0.881592H3.44316V3.52651H0V19.4449H14.8163V18.7102H0.734672V18.7102ZM4.17788 1.61631H4.986V3.52651H4.17788V1.61631Z" fill="#E91515"/>
<path d="M16.8831 3.52651V0.881592H14.6056V3.52651H6.82264V4.26119H19.5918V6.46525H1.83673V7.19997H20.3265V3.52651H16.8831ZM16.1485 3.52651H15.3403V1.61631H16.1485V3.52651Z" fill="#E91515"/>
<path d="M20.3265 15.0542V8.302H19.5918V15.0541C17.5353 15.2404 15.9184 16.9733 15.9184 19.0775C15.9184 21.3056 17.7311 23.1183 19.9592 23.1183C22.1873 23.1183 24 21.3056 24 19.0775C24 16.9733 22.383 15.2404 20.3265 15.0542ZM19.9592 22.3836C18.1361 22.3836 16.653 20.9005 16.653 19.0775C16.653 17.2545 18.1361 15.7713 19.9592 15.7713C21.7822 15.7713 23.2653 17.2545 23.2653 19.0775C23.2653 20.9005 21.7822 22.3836 19.9592 22.3836Z" fill="#E91515"/>
<path d="M21.0004 19.7467C21.0004 19.9778 20.9252 20.1719 20.7749 20.3289C20.6245 20.483 20.4302 20.5733 20.1919 20.6V21H19.9366V20.6044C19.7068 20.5896 19.5111 20.5259 19.3494 20.4133C19.1877 20.3007 19.0713 20.1496 19.0004 19.96L19.2557 19.8044C19.3607 20.1067 19.5877 20.2726 19.9366 20.3022V19.0756C19.8089 19.0281 19.7054 18.9852 19.626 18.9467C19.5494 18.9081 19.4699 18.8563 19.3877 18.7911C19.3054 18.7259 19.2444 18.6459 19.2047 18.5511C19.1678 18.4563 19.1494 18.3452 19.1494 18.2178C19.1494 17.9867 19.2231 17.7985 19.3706 17.6533C19.521 17.5052 19.7096 17.4193 19.9366 17.3956V17H20.1919V17.4C20.3593 17.4207 20.5082 17.48 20.6387 17.5778C20.7692 17.6756 20.8685 17.8074 20.9366 17.9733L20.6855 18.12C20.5948 17.883 20.4302 17.7452 20.1919 17.7067V18.8622C20.3167 18.9067 20.4203 18.9496 20.5026 18.9911C20.5848 19.0326 20.6671 19.0874 20.7494 19.1556C20.8345 19.2237 20.8969 19.3067 20.9366 19.4044C20.9792 19.5022 21.0004 19.6163 21.0004 19.7467ZM19.4472 18.2178C19.4472 18.3541 19.487 18.4622 19.5664 18.5422C19.6458 18.6222 19.7692 18.6963 19.9366 18.7644V17.7022C19.7891 17.72 19.6699 17.7748 19.5792 17.8667C19.4912 17.9556 19.4472 18.0726 19.4472 18.2178ZM20.1919 20.2978C20.3508 20.2741 20.4756 20.2133 20.5664 20.1156C20.6572 20.0178 20.7026 19.8948 20.7026 19.7467C20.7026 19.6015 20.66 19.4874 20.5749 19.4044C20.4898 19.3185 20.3621 19.24 20.1919 19.1689V20.2978Z" fill="#E91515"/>
<path d="M7.34686 8.42456V10.6286H9.55093V8.42456H7.34686ZM8.81625 9.89395H8.08158V9.15928H8.81625V9.89395Z" fill="#E91515"/>
<path d="M10.7754 8.42456V10.6286H12.9795V8.42456H10.7754ZM12.2448 9.89395H11.5101V9.15928H12.2448V9.89395Z" fill="#E91515"/>
<path d="M14.204 8.42456V10.6286H16.408V8.42456H14.204ZM15.6734 9.89395H14.9387V9.15928H15.6734V9.89395Z" fill="#E91515"/>
<path d="M3.91827 11.853V14.0571H6.12234V11.853H3.91827ZM5.38766 13.3224H4.65295V12.5877H5.38762L5.38766 13.3224Z" fill="#E91515"/>
<path d="M7.34686 11.853V14.0571H9.55093V11.853H7.34686ZM8.81625 13.3224H8.08158V12.5877H8.81625V13.3224Z" fill="#E91515"/>
<path d="M10.7754 11.853V14.0571H12.9795V11.853H10.7754ZM12.2448 13.3224H11.5101V12.5877H12.2448V13.3224Z" fill="#E91515"/>
<path d="M14.204 11.853V14.0571H16.408V11.853H14.204ZM15.6734 13.3224H14.9387V12.5877H15.6734V13.3224Z" fill="#E91515"/>
<path d="M3.91827 15.2817V17.4858H6.12234V15.2817H3.91827ZM5.38766 16.7511H4.65295V16.0165H5.38762L5.38766 16.7511Z" fill="#E91515"/>
<path d="M7.34686 15.2817V17.4858H9.55093V15.2817H7.34686ZM8.81625 16.7511H8.08158V16.0165H8.81625V16.7511Z" fill="#E91515"/>
<path d="M10.7754 15.2817V17.4858H12.9795V15.2817H10.7754ZM12.2448 16.7511H11.5101V16.0165H12.2448V16.7511Z" fill="#E91515"/>
</g>
<defs>
<clipPath id="clip0_1_2414">
<rect width="24" height="24" fill="white"/>
</clipPath>
</defs>
</svg>
