<svg width="24" height="25" viewBox="0 0 24 25" fill="none" xmlns="http://www.w3.org/2000/svg">
<path d="M22.9104 5.31324L12.1104 1.82364C12.0388 1.79967 11.9613 1.79967 11.8896 1.82364L1.08962 5.31804C1.01874 5.34288 0.957327 5.38914 0.913879 5.45041C0.870431 5.51168 0.847094 5.58493 0.847094 5.66004C0.847094 5.73515 0.870431 5.8084 0.913879 5.86967C0.957327 5.93094 1.01874 5.9772 1.08962 6.00204L6.30002 7.68204L5.71922 10.0556L5.35442 11.5484C5.33378 11.6333 5.34452 11.7229 5.38465 11.8005C5.42478 11.8781 5.49161 11.9386 5.57282 11.9708C7.61618 12.7941 9.79709 13.2224 12 13.2332C14.2028 13.2232 16.3837 12.7956 18.4272 11.9732C18.5084 11.941 18.5753 11.8805 18.6154 11.8029C18.6555 11.7253 18.6663 11.6357 18.6456 11.5508L18.2808 10.058L17.7 7.68444L20.9592 6.62364V8.20524C20.7418 8.25507 20.5457 8.37248 20.3991 8.54063C20.2525 8.70878 20.1629 8.91903 20.1432 9.14124L19.9632 10.2308C19.9549 10.2824 19.9579 10.3352 19.9719 10.3855C19.9858 10.4359 20.0106 10.4826 20.0443 10.5225C20.078 10.5624 20.12 10.5945 20.1673 10.6166C20.2146 10.6388 20.2662 10.6505 20.3184 10.6508H22.32C22.3723 10.6505 22.4238 10.6388 22.4711 10.6166C22.5184 10.5945 22.5604 10.5624 22.5941 10.5225C22.6279 10.4826 22.6526 10.4359 22.6666 10.3855C22.6806 10.3352 22.6835 10.2824 22.6752 10.2308L22.4976 9.16044C22.4812 8.93414 22.3929 8.71899 22.2457 8.54632C22.0985 8.37365 21.9001 8.25248 21.6792 8.20044V6.39564L22.9104 5.99724C22.9813 5.9724 23.0427 5.92614 23.0862 5.86487C23.1296 5.8036 23.1529 5.73035 23.1529 5.65524C23.1529 5.58013 23.1296 5.50688 23.0862 5.44561C23.0427 5.38434 22.9813 5.33808 22.9104 5.31324ZM6.12962 11.4236L6.32642 10.622C8.14913 11.2651 10.0672 11.5961 12 11.6012C13.9334 11.593 15.8515 11.2587 17.6736 10.6124L17.8704 11.4236C14.0938 12.8877 9.90629 12.8877 6.12962 11.4236ZM17.5032 9.92364C13.9472 11.21 10.0529 11.21 6.49682 9.92364L6.97682 7.91484L11.8896 9.50364C11.9616 9.52526 12.0384 9.52526 12.1104 9.50364L17.0136 7.91724L17.5032 9.92364ZM12 8.76924L2.36882 5.66364L12 2.54364L21.6312 5.66364L21.1968 5.80524L12.0192 5.29644C11.9237 5.29135 11.8302 5.32439 11.759 5.38831C11.6879 5.45222 11.6451 5.54176 11.64 5.63724C11.6349 5.73272 11.668 5.82631 11.7319 5.89742C11.7958 5.96854 11.8853 6.01135 11.9808 6.01644L19.2888 6.41484L12 8.76924ZM21.7824 9.26364L21.8952 9.93564H20.7432L20.856 9.24444C20.8776 9.05724 21 8.91084 21.1368 8.91084H21.4992C21.6384 8.91084 21.7608 9.05724 21.7824 9.26364ZM18.9864 16.3124L13.0128 14.7572L11.8608 14.4596L3.60002 12.3116C2.50802 12.0284 1.34642 12.9788 0.96002 14.4716C0.776691 15.1258 0.795093 15.8201 1.01282 16.4636C1.09798 16.7473 1.25218 17.0054 1.46161 17.2149C1.67104 17.4243 1.92915 17.5785 2.21282 17.6636L8.67842 19.3436L8.16002 21.3092C8.14217 21.374 8.14264 21.4424 8.16139 21.5068C8.18014 21.5713 8.21642 21.6293 8.2662 21.6743C8.31597 21.7194 8.37728 21.7497 8.44329 21.7619C8.50929 21.7742 8.5774 21.7678 8.64002 21.7436L10.44 21.0956L11.7024 22.5356C11.7459 22.5841 11.8016 22.6199 11.8638 22.6394C11.9259 22.6588 11.9921 22.6612 12.0555 22.6462C12.1188 22.6312 12.177 22.5995 12.2238 22.5542C12.2706 22.509 12.3044 22.452 12.3216 22.3892L12.8352 20.4164L17.5968 21.6548C17.7245 21.6883 17.856 21.7052 17.988 21.7052C18.948 21.7052 19.8936 20.81 20.2368 19.49C20.4162 18.8404 20.3987 18.1521 20.1864 17.5124C20.1016 17.2286 19.9476 16.9703 19.7381 16.7608C19.5286 16.5513 19.2703 16.3972 18.9864 16.3124ZM12.8304 15.4556C13.0056 15.5012 13.1568 15.7364 13.2336 16.0844C13.3255 16.6044 13.2993 17.1384 13.1568 17.6468C12.8376 18.8708 12.156 19.4948 11.8032 19.4036L10.7088 19.118L9.40082 18.7772C9.89215 18.2618 10.2354 17.6234 10.3944 16.9292C10.5944 16.245 10.606 15.5195 10.428 14.8292L12.8304 15.4556ZM4.09922 15.3164L3.34082 15.1508C3.24927 15.1313 3.15372 15.1482 3.07441 15.1979C2.99511 15.2477 2.9383 15.3263 2.91602 15.4172C2.88213 15.5628 2.81474 15.6984 2.71922 15.8132C2.65446 15.7872 2.59738 15.7451 2.55331 15.6909C2.50924 15.6368 2.47962 15.5723 2.46722 15.5036C2.43106 15.2722 2.45637 15.0353 2.54062 14.8166C2.62486 14.598 2.76508 14.4054 2.94722 14.258C3.0517 14.1508 3.19357 14.088 3.34322 14.0828C3.441 14.084 3.53655 14.1122 3.61922 14.1644C3.79443 14.2964 3.93127 14.4728 4.01564 14.6753C4.10002 14.8778 4.12887 15.0991 4.09922 15.3164ZM1.68002 16.2068C1.51625 15.7045 1.50539 15.1649 1.64882 14.6564C1.88882 13.6964 2.58242 12.9764 3.21122 12.9764C3.39523 12.9861 3.57239 13.0494 3.72082 13.1586C3.86924 13.2678 3.98244 13.418 4.04642 13.5908L3.97442 13.5428C3.73604 13.3966 3.45538 13.3348 3.17762 13.3675C2.89987 13.4001 2.64119 13.5253 2.44322 13.7228C2.16593 13.9588 1.95659 14.2645 1.83678 14.6083C1.71697 14.9521 1.69103 15.3217 1.76162 15.6788C1.8045 15.8776 1.90132 16.0607 2.04146 16.2081C2.18161 16.3554 2.35964 16.4613 2.55602 16.514C2.61101 16.5274 2.66744 16.5338 2.72402 16.5332C3.06722 16.5332 3.33122 16.2668 3.48962 15.9188L3.86642 16.0004C3.49202 16.6748 2.90642 17.0852 2.38562 16.9604C2.21498 16.9028 2.06125 16.8038 1.93814 16.6723C1.81503 16.5408 1.72636 16.3809 1.68002 16.2068ZM3.74642 17.2676C4.29442 16.7944 4.68399 16.1643 4.86253 15.4626C5.04108 14.7609 4.99999 14.0213 4.74482 13.3436L9.37202 14.5436C9.72242 14.6348 10.0152 15.5036 9.69602 16.7348C9.37682 17.966 8.69762 18.5828 8.34482 18.4916L3.71762 17.2916L3.74642 17.2676ZM11.796 21.5516L10.8216 20.4356C10.774 20.3816 10.7112 20.3432 10.6415 20.3252C10.5718 20.3072 10.4982 20.3106 10.4304 20.3348L9.03602 20.8316L9.37682 19.5164L12.1392 20.2364L11.796 21.5516ZM19.5384 19.3076C19.26 20.378 18.4536 21.1316 17.7792 20.9588L12.8568 19.6772C13.3512 19.1636 13.6956 18.5246 13.8528 17.8292C14.0266 17.2105 14.0554 16.5601 13.9368 15.9284C13.92 15.8588 13.9032 15.7916 13.8816 15.7292L18.8064 17.0084C18.9757 17.0666 19.1283 17.1651 19.2509 17.2956C19.3734 17.4261 19.4622 17.5846 19.5096 17.7572C19.6742 18.2595 19.6842 18.7996 19.5384 19.3076Z" fill="#E91515"/>
</svg>
