<svg width="60" height="60" viewBox="0 0 60 60" fill="none" xmlns="http://www.w3.org/2000/svg">
<g clip-path="url(#clip0_1_1715)">
<path d="M11.0268 19.7686C10.5403 19.7686 10.1461 20.1628 10.1461 20.6492V22.6951C10.1461 23.1815 10.5403 23.5757 11.0268 23.5757C11.5132 23.5757 11.9074 23.1815 11.9074 22.6951V20.6492C11.9074 20.1628 11.5132 19.7686 11.0268 19.7686Z" fill="#E91515"/>
<path d="M19.8605 23.5757C20.347 23.5757 20.7412 23.1815 20.7412 22.6951V20.6492C20.7412 20.1628 20.347 19.7686 19.8605 19.7686C19.3741 19.7686 18.9799 20.1628 18.9799 20.6492V22.6951C18.9799 23.1815 19.3741 23.5757 19.8605 23.5757Z" fill="#E91515"/>
<path d="M18.2501 26.6866C18.4351 26.237 18.2205 25.7223 17.7706 25.5372C17.3207 25.3525 16.8064 25.567 16.6211 26.0168C16.619 26.0218 16.3682 26.5304 15.4437 26.5304C14.5191 26.5304 14.2683 26.0218 14.2663 26.0168C14.0812 25.567 13.5667 25.3525 13.1168 25.5372C12.667 25.7223 12.4524 26.237 12.6373 26.6866C12.8826 27.2827 13.7497 28.2917 15.4437 28.2917C17.1378 28.2917 18.0049 27.2827 18.2501 26.6866Z" fill="#E91515"/>
<path d="M40.1458 19.7686C39.6594 19.7686 39.2651 20.1628 39.2651 20.6492V22.6951C39.2651 23.1815 39.6594 23.5757 40.1458 23.5757C40.6322 23.5757 41.0265 23.1815 41.0265 22.6951V20.6492C41.0265 20.1628 40.6322 19.7686 40.1458 19.7686Z" fill="#E91515"/>
<path d="M48.9794 19.7686C48.493 19.7686 48.0988 20.1628 48.0988 20.6492V22.6951C48.0988 23.1815 48.493 23.5757 48.9794 23.5757C49.4659 23.5757 49.8601 23.1815 49.8601 22.6951V20.6492C49.8601 20.1628 49.4659 19.7686 48.9794 19.7686Z" fill="#E91515"/>
<path d="M46.8895 25.5372C46.4398 25.3525 45.9253 25.567 45.7401 26.0168C45.7379 26.0218 45.4872 26.5304 44.5627 26.5304C43.6381 26.5304 43.3873 26.0218 43.3853 26.0168C43.2001 25.567 42.6856 25.3525 42.2358 25.5372C41.7859 25.7223 41.5712 26.237 41.7563 26.6866C42.0015 27.2827 42.8686 28.2917 44.5627 28.2917C46.2568 28.2917 47.1238 27.2829 47.3691 26.6866C47.554 26.2368 47.3393 25.7223 46.8895 25.5372Z" fill="#E91515"/>
<path d="M49.9697 31.866C51.2309 31.0508 52.297 29.9588 53.0839 28.6775C53.6862 30.0351 54.8812 31.6216 57.2388 32.8978C57.6526 33.1321 58.2186 32.9618 58.4345 32.539C58.4714 32.4701 59.3427 30.8265 59.7032 28.7663C60.1792 26.0461 59.5513 23.8511 57.8873 22.3878C57.8218 21.7974 57.6252 21.2464 57.327 20.7643C58.4318 15.0413 57.5311 10.0421 54.7743 6.65611C52.4193 3.76369 48.8883 2.23474 44.5629 2.23474C40.2375 2.23474 36.7065 3.76369 34.3514 6.65611C31.5945 10.0424 30.6938 15.0418 31.7988 20.7649C31.5007 21.247 31.3032 21.7977 31.2377 22.3878C29.5737 23.851 28.9459 26.0461 29.4219 28.7663C29.7824 30.8265 30.6537 32.4701 30.6906 32.539C30.9064 32.9619 31.4726 33.1321 31.8863 32.8978C34.2438 31.6215 35.4391 30.035 36.0414 28.6774C36.3284 29.1449 36.6512 29.5881 37.0086 30.0008C37.6315 30.7201 38.3555 31.349 39.1574 31.8671C37.7558 32.1109 36.4038 32.5984 35.1704 33.3136C34.7497 33.5576 34.6064 34.0965 34.8504 34.5172C35.0945 34.9381 35.6334 35.0812 36.054 34.8372C37.4556 34.0244 39.0371 33.5554 40.6601 33.4649L42.4525 37.6221C42.8218 38.4787 43.6303 39.0109 44.5627 39.0109C45.495 39.0109 46.3036 38.4787 46.673 37.6221L48.4657 33.464C53.9054 33.7654 58.2386 38.2854 58.2386 43.7988V47.9109H54.2493V43.0786C54.2493 42.5921 53.855 42.198 53.3686 42.198C52.8821 42.198 52.4879 42.5922 52.4879 43.0786V58.2394H36.6377V48.8416C36.6387 48.825 36.6402 48.8085 36.6402 48.7916C36.6402 48.7747 36.6387 48.7582 36.6377 48.7415V43.0786C36.6377 42.5921 36.2435 42.198 35.7571 42.198C35.2706 42.198 34.8764 42.5922 34.8764 43.0786V47.9109H30.8871V43.8166V43.7985C30.8871 41.2392 31.8285 38.7827 33.5375 36.8815C33.8626 36.5198 33.8331 35.9629 33.4712 35.6379C33.1095 35.3126 32.5526 35.3426 32.2275 35.7042C31.2734 36.7657 30.5264 37.976 30.0033 39.2756C28.4518 35.4518 25.0021 32.5949 20.8298 31.8767C22.6951 30.6772 24.1373 28.8756 24.8805 26.7469C27.0386 26.7426 28.793 24.9844 28.793 22.8236C28.793 22.0217 28.5509 21.2755 28.1367 20.6536C30.413 17.1149 31.0075 12.9586 29.7627 9.21572C28.746 6.15865 26.5966 3.84642 23.8657 2.87177C21.6131 2.06787 20.2305 1.98466 19.5083 2.0374C18.6028 1.17525 16.0199 -0.67514 11.2133 0.255798C9.6566 0.557438 8.07434 1.36884 6.63785 2.60224C6.26883 2.91924 6.22652 3.47506 6.5434 3.84408C6.86016 4.21287 7.41598 4.25552 7.78523 3.93853C8.99004 2.90388 10.2913 2.22841 11.5484 1.9849C16.4523 1.03486 18.4061 3.41365 18.4814 3.50845C18.7168 3.81771 19.0733 3.95435 19.435 3.81982C19.5734 3.79334 20.7221 3.62013 23.2736 4.53056C25.4907 5.32181 27.2468 7.2322 28.0913 9.77154C29.1188 12.8611 28.6427 16.4325 26.8275 19.425C26.4073 19.1819 25.9385 19.0144 25.4392 18.9417V18.1524C25.4392 17.7582 25.1771 17.4119 24.7976 17.3049C21.0722 16.2539 18.2408 11.5236 18.1949 11.4463C18.0464 11.1933 17.7818 11.0307 17.4888 11.0128C17.1962 10.9966 16.9136 11.1242 16.7353 11.3573C12.7854 16.5293 6.30211 17.268 6.23836 17.2747C5.78906 17.3206 5.44746 17.6992 5.44746 18.1507V18.9416C4.75793 19.0419 4.12664 19.3228 3.60176 19.7342C2.11336 16.3378 2.17629 11.2101 5.57461 6.39806C5.85504 6.0008 5.76047 5.45131 5.3632 5.17076C4.96582 4.89033 4.41633 4.98502 4.1359 5.38216C2.48449 7.72029 1.38211 10.5328 1.03137 13.3015C0.659883 16.2343 1.13473 18.9858 2.40445 21.2938C2.20477 21.764 2.09414 22.2811 2.09414 22.8235C2.09414 24.9842 3.84855 26.7425 6.00645 26.7467C6.74953 28.8749 8.19105 30.6759 10.0555 31.8754C4.35258 32.8575 0 37.8379 0 43.8165V51.9872C0 52.4736 0.394219 52.8678 0.880664 52.8678C1.36711 52.8678 1.76133 52.4736 1.76133 51.9872V49.6718H5.75309V58.2389H1.76133V55.5096C1.76133 55.0231 1.36711 54.6289 0.880664 54.6289C0.394219 54.6289 0 55.0233 0 55.5097V59.1197C0 59.606 0.394219 60.0002 0.880664 60.0002H59.1193C59.6058 60.0002 60 59.606 60 59.1195V43.7985C60 37.8299 55.6598 32.8562 49.9697 31.866ZM57.4762 24.618C58.6861 26.6454 57.8266 29.4661 57.2638 30.8598C55.1115 29.4218 54.4868 27.7269 54.3109 26.7329C55.6908 26.621 56.8704 25.7914 57.4762 24.618ZM54.4478 24.9362C54.5198 24.4523 54.5585 23.9577 54.5585 23.4541V20.7392C55.4745 20.9894 56.1509 21.8278 56.1509 22.8235C56.1507 23.8591 55.4198 24.7261 54.4478 24.9362ZM34.678 24.9363C33.7056 24.7263 32.9743 23.8592 32.9743 22.8234C32.9743 21.8277 33.6506 20.9893 34.5668 20.7391V23.454C34.5668 23.9578 34.6059 24.4524 34.678 24.9363ZM31.8615 30.8598C31.2984 29.4656 30.4392 26.6453 31.6489 24.618C32.2547 25.7913 33.4341 26.6208 34.8136 26.7328C34.6375 27.7292 34.012 29.4228 31.8615 30.8598ZM35.2582 18.9031C35.2165 18.9019 35.1746 18.9 35.1332 18.9C34.4873 18.9 33.878 19.0578 33.3404 19.3358C32.6406 14.6007 33.4673 10.5316 35.7175 7.76798C37.7268 5.30025 40.7854 3.99584 44.563 3.99584C48.3407 3.99584 51.3993 5.30025 53.4086 7.76787C55.6587 10.5316 56.4853 14.6008 55.7854 19.3363C55.2476 19.0581 54.6382 18.9 53.9921 18.9C53.9217 18.9 53.8508 18.9021 53.7802 18.906C52.2641 18.4286 50.3462 17.0184 48.2187 14.811C46.5134 13.0414 45.283 11.3846 45.2707 11.3681C45.1061 11.1456 44.8463 11.0133 44.5693 11.0111C44.567 11.0111 44.5649 11.0111 44.5625 11.0111C44.2882 11.0111 44.0293 11.139 43.8626 11.3572C40.2769 16.0522 36.1843 18.4078 35.2582 18.9031ZM45.0555 36.9247C44.9292 37.2178 44.6688 37.2494 44.5628 37.2494C44.4568 37.2494 44.1966 37.2178 44.0701 36.9247L42.5708 33.4473H46.5547L45.0555 36.9247ZM44.5625 31.6862C40.0221 31.6862 36.3281 28.0004 36.3281 23.4542V20.3283C37.6191 19.6146 41.1768 17.4232 44.5562 13.3167C46.0182 15.1315 49.5079 19.1341 52.7971 20.4269V23.4541C52.7972 28.0004 49.1032 31.6862 44.5625 31.6862ZM27.0318 22.8235C27.0318 23.859 26.301 24.7258 25.329 24.9362C25.4011 24.4524 25.4393 23.9578 25.4393 23.4542V20.7394C26.3555 20.9893 27.0318 21.8278 27.0318 22.8235ZM3.85547 22.8235C3.85547 21.8279 4.53176 20.9894 5.44781 20.7394V23.4542C5.44781 23.9578 5.48602 24.4524 5.55809 24.9362C4.58625 24.7257 3.85547 23.8589 3.85547 22.8235ZM7.20902 23.4541V18.9063C9.0702 18.5635 13.8005 17.338 17.3546 13.3693C18.4343 14.8937 20.7198 17.6752 23.678 18.7883V23.454C23.678 28.0003 19.984 31.699 15.4436 31.699C10.903 31.6991 7.20902 28.0004 7.20902 23.4541ZM18.2316 33.4603C18.1348 34.0671 17.9057 34.8688 17.364 35.4317C16.8986 35.9154 16.2703 36.1506 15.4433 36.1506C14.6195 36.1506 13.993 35.9172 13.528 35.4372C12.9807 34.8724 12.7506 34.0684 12.654 33.4603H18.2316ZM29.1259 58.239H25.134V49.6719H29.1259V58.239ZM29.1259 47.9106H25.134V43.0971C25.134 42.6106 24.7398 42.2165 24.2534 42.2165C23.7669 42.2165 23.3727 42.6108 23.3727 43.0971V58.239H7.51441V43.0971C7.51441 42.6106 7.1202 42.2165 6.63375 42.2165C6.1473 42.2165 5.75309 42.6108 5.75309 43.0971V47.9107H1.76133V43.8166C1.76133 38.5229 5.75414 34.1449 10.8864 33.5339C11.0033 34.4137 11.3334 35.697 12.2534 36.6529C13.0573 37.4883 14.1305 37.9118 15.4432 37.9118C16.7559 37.9118 17.8291 37.4883 18.633 36.6529C19.553 35.6972 19.8831 34.4137 20 33.5339C25.1326 34.1445 29.1258 38.5228 29.1258 43.8167V47.9106H29.1259ZM34.8764 58.239H30.8871V49.6719H34.8764V58.239ZM58.2387 58.239H54.2494V49.6719H58.2387V58.239Z" fill="#E91515"/>
</g>
<defs>
<clipPath id="clip0_1_1715">
<rect width="60" height="60" fill="white"/>
</clipPath>
</defs>
</svg>
