<svg width="80" height="80" viewBox="0 0 80 80" fill="none" xmlns="http://www.w3.org/2000/svg">
<path d="M29.5594 60.8843H21.7844C21.2355 60.8843 20.7906 61.3291 20.7906 61.878C20.7906 62.4269 21.2355 62.8718 21.7844 62.8718H29.5594C30.1083 62.8718 30.5531 62.4269 30.5531 61.878C30.5531 61.3291 30.1083 60.8843 29.5594 60.8843Z" fill="#1C1C1C"/>
<path d="M29.5593 65.3672H26.9671C26.4182 65.3672 25.9734 65.812 25.9734 66.3609C25.9734 66.9098 26.4182 67.3547 26.9671 67.3547H29.5593C30.1082 67.3547 30.5531 66.9098 30.5531 66.3609C30.5531 65.812 30.1082 65.3672 29.5593 65.3672Z" fill="#1C1C1C"/>
<path d="M19.7109 65.3672C19.162 65.3672 18.7172 65.812 18.7172 66.3609C18.7172 66.9098 19.162 67.3547 19.7109 67.3547H23.2359C23.7848 67.3547 24.2297 66.9098 24.2297 66.3609C24.2297 65.812 23.7848 65.3672 23.2359 65.3672H19.7109Z" fill="#1C1C1C"/>
<path d="M31.8609 34.7437C31.312 34.7437 30.8672 35.1885 30.8672 35.7374C30.8672 36.2863 31.312 36.7312 31.8609 36.7312H38.6516C39.2005 36.7312 39.6453 36.2863 39.6453 35.7374C39.6453 35.1885 39.2005 34.7437 38.6516 34.7437H31.8609Z" fill="#1C1C1C"/>
<path d="M42.989 30.25C42.4398 30.2717 42.0122 30.7347 42.0339 31.2839C42.0545 31.8027 42.4703 32.2184 42.989 32.2391H45.9109C46.4601 32.2173 46.8878 31.7544 46.8661 31.2052C46.8454 30.6864 46.4297 30.2706 45.9109 30.25H42.989Z" fill="#1C1C1C"/>
<path d="M41.0797 31.25C41.0797 30.7009 40.635 30.2556 40.0859 30.2546H35.2562C34.707 30.2764 34.2794 30.7393 34.3011 31.2885C34.3217 31.8073 34.7375 32.2231 35.2562 32.2437H40.0859C40.6348 32.2437 41.0797 31.7989 41.0797 31.25Z" fill="#1C1C1C"/>
<path d="M38.6516 27.7453H49.3485C49.8974 27.7453 50.3422 27.3005 50.3422 26.7516C50.3422 26.2027 49.8974 25.7578 49.3485 25.7578H38.6516C38.1027 25.7578 37.6578 26.2027 37.6578 26.7516C37.6578 27.3005 38.1027 27.7453 38.6516 27.7453Z" fill="#1C1C1C"/>
<path d="M61.8375 69.3062C61.2884 69.3062 60.8431 69.7508 60.8421 70.2999V71.5499C60.8431 73.3974 59.3475 74.8965 57.5 74.8999H18.4078C16.564 74.8982 15.0685 73.4062 15.0625 71.5624V70.3124C15.0625 69.7635 14.6176 69.3187 14.0687 69.3187C13.5198 69.3187 13.075 69.7635 13.075 70.3124V71.5624C13.0784 74.5065 15.4637 76.8924 18.4078 76.8968H57.5C60.4434 76.8916 62.8278 74.5058 62.8312 71.5624V70.3124C62.8381 69.7637 62.3989 69.3132 61.8501 69.3062C61.8459 69.3062 61.8417 69.3062 61.8375 69.3062Z" fill="#1C1C1C"/>
<path d="M18.5078 49.4454C18.5078 46.9938 16.5203 45.0063 14.0687 45.0063C11.6171 45.0063 9.62964 46.9938 9.62964 49.4454C9.62964 51.8946 11.6132 53.881 14.0625 53.8845C16.5157 53.8862 18.506 51.8987 18.5078 49.4454ZM11.6187 49.4454C11.6187 48.0923 12.7156 46.9954 14.0687 46.9954C15.4218 46.9954 16.5187 48.0923 16.5187 49.4454C16.5187 50.7985 15.4218 51.8954 14.0687 51.8954C14.0667 51.8954 14.0645 51.8954 14.0625 51.8954C12.7125 51.8903 11.6204 50.7954 11.6187 49.4454Z" fill="#1C1C1C"/>
<path d="M14.0625 67.3548C14.3851 67.3549 14.6878 67.1988 14.875 66.936C18.5718 61.7126 23 55.4688 23.064 55.361L23.1015 55.2985C26.3476 50.3068 24.9326 43.6288 19.9409 40.3827C14.9492 37.1366 8.27121 38.5516 5.02512 43.5434C2.70621 47.1093 2.70075 51.7052 5.0109 55.2766L5.07496 55.3829C5.13746 55.4766 10.2312 62.661 13.2515 66.936C13.4381 67.1987 13.7403 67.3546 14.0625 67.3548ZM21.4031 54.2704C21.2687 54.4657 16.9265 60.6001 14.0687 64.636L6.76403 54.3235L6.70309 54.2188C4.05856 50.1505 5.21278 44.7085 9.28106 42.064C13.3493 39.4195 18.7914 40.5737 21.4359 44.642C23.3286 47.5537 23.3286 51.3071 21.4359 54.2188L21.4031 54.2704Z" fill="#1C1C1C"/>
<path d="M61.8375 36.3608C58.5894 36.3599 55.9556 38.9924 55.9547 42.2405C55.9538 45.4887 58.5863 48.1224 61.8344 48.1233C65.0825 48.1243 67.7163 45.4918 67.7172 42.2436C67.7172 42.2426 67.7172 42.2416 67.7172 42.2405C67.7138 38.9947 65.0833 36.3643 61.8375 36.3608ZM61.8375 46.1327C59.688 46.1327 57.9453 44.3901 57.9453 42.2405C57.9453 40.091 59.688 38.3483 61.8375 38.3483C63.9871 38.3483 65.7297 40.091 65.7297 42.2405C65.728 44.3894 63.9864 46.131 61.8375 46.1327Z" fill="#1C1C1C"/>
<path d="M61.8375 27.3735C53.6335 27.3657 46.9764 34.0101 46.9686 42.214C46.966 45.0831 47.7941 47.8915 49.3532 50.3001L49.4375 50.4376C49.5266 50.572 58.3297 63.0048 61.025 66.8126C61.3446 67.2609 61.9671 67.3653 62.4155 67.0456C62.5055 66.9814 62.5844 66.9026 62.6485 66.8126C65.3438 63.0048 74.1485 50.5626 74.2579 50.4064L74.311 50.3189C78.7775 43.4364 76.8191 34.236 69.9364 29.7693C67.5252 28.2045 64.7119 27.3728 61.8375 27.3751V27.3735ZM72.5875 49.3298C72.4219 49.572 65.8907 58.7939 61.8375 64.5204C57.775 58.7892 51.2469 49.5626 51.1172 49.3767L51.0375 49.2485C47.1596 43.2843 48.8508 35.3056 54.815 31.4276C60.7793 27.5496 68.758 29.2409 72.636 35.2051C75.4121 39.4746 75.4121 44.9789 72.636 49.2484L72.5875 49.3298Z" fill="#1C1C1C"/>
<path d="M24.2609 20.9532C27.0387 20.9532 29.2906 18.7013 29.2906 15.9235C29.2906 13.1457 27.0387 10.8938 24.2609 10.8938C21.4831 10.8938 19.2312 13.1457 19.2312 15.9235V15.925C19.2346 18.7011 21.4848 20.9505 24.2609 20.9532ZM24.2609 12.8844C25.9401 12.8844 27.3015 14.2458 27.3015 15.925C27.3015 17.6043 25.9401 18.9657 24.2609 18.9657C22.5817 18.9657 21.2203 17.6043 21.2203 15.925C21.222 14.2465 22.5823 12.8861 24.2609 12.8844Z" fill="#1C1C1C"/>
<path d="M13.8765 22.7859C13.95 22.8968 20.5953 32.2828 23.4484 36.3124C23.7679 36.7607 24.3904 36.8651 24.8389 36.5454C24.9289 36.4812 25.0076 36.4024 25.0718 36.3124C28.6171 31.3124 34.575 22.8906 34.6625 22.7562L34.7062 22.6859C38.4479 16.9171 36.8046 9.20744 31.0359 5.46572C25.2671 1.724 17.5575 3.36729 13.8157 9.13604C11.1467 13.2509 11.1423 18.5495 13.8046 22.6687L13.8765 22.7859ZM24.2609 5.46869C30.0331 5.46604 34.7146 10.1432 34.7173 15.9154C34.7182 17.9376 34.1326 19.9165 33.0312 21.6124L33.0171 21.6359L32.9921 21.6781C32.8359 21.8953 27.6093 29.289 24.2609 34.0218L15.5562 21.7187L15.489 21.6078C12.347 16.7667 13.7245 10.2949 18.5656 7.15307C20.2612 6.0526 22.2395 5.46744 24.2609 5.46869Z" fill="#1C1C1C"/>
<path d="M62.4328 15.7906C64.5203 15.7906 66.2125 14.0984 66.2125 12.0109C66.2125 9.92339 64.5203 8.2312 62.4328 8.2312C60.3453 8.2312 58.6531 9.92339 58.6531 12.0109C58.6548 14.0976 60.346 15.7889 62.4328 15.7906ZM62.4328 10.2218C63.4217 10.2218 64.2234 11.0235 64.2234 12.0125C64.2234 13.0014 63.4217 13.8031 62.4328 13.8031C61.4439 13.8031 60.6421 13.0014 60.6421 12.0125C60.6421 12.012 60.6421 12.0114 60.6421 12.0109C60.6439 11.0229 61.4448 10.2228 62.4328 10.2218Z" fill="#1C1C1C"/>
<path d="M55.0094 16.9156C55.0563 16.9906 58.6313 22.0375 61.6203 26.2594C61.9369 26.7077 62.557 26.8144 63.0053 26.4978C63.0978 26.4325 63.1785 26.3519 63.2438 26.2594C66.2344 22.0406 69.8063 16.9906 69.8735 16.8844L69.9016 16.8375C72.5803 12.7122 71.4077 7.19624 67.2824 4.51749C63.157 1.83874 57.6411 3.0114 54.9624 7.13671C53.0491 10.0833 53.0467 13.8792 54.9563 16.8281C54.9625 16.8422 55 16.9078 55.0094 16.9156ZM68.2078 15.8062C68.0985 15.9625 64.7422 20.7062 62.4344 23.9641L56.686 15.8469L56.6391 15.7703C54.5594 12.5741 55.4645 8.29687 58.661 6.21718C59.7838 5.48656 61.0949 5.09843 62.4344 5.09999H62.4328C66.247 5.09718 69.3413 8.18703 69.3441 12.0012C69.345 13.3392 68.9574 14.6486 68.2281 15.7703L68.2078 15.8062Z" fill="#1C1C1C"/>
</svg>
