<svg width="80" height="80" viewBox="0 0 80 80" fill="none" xmlns="http://www.w3.org/2000/svg">
<g clip-path="url(#clip0_1_2139)">
<path d="M50.6917 80C50.635 80 50.5783 79.9962 50.5216 79.9887L49.8027 79.8929H29.3082C28.9629 79.8929 28.6321 79.7549 28.3896 79.5086C28.147 79.2622 28.0128 78.9289 28.0178 78.583L28.1249 71.439C28.1249 65.3471 33.6617 62.5176 37.0142 61.7843C38.2906 61.3395 41.7615 61.2802 43.1149 61.7887C46.4686 62.5277 51.9833 65.361 51.9833 71.4579V78.7097C51.9833 79.0814 51.8233 79.4361 51.5423 79.6799C51.306 79.8878 51.003 80 50.6917 80ZM30.618 77.3122H49.4027V71.4579C49.4027 65.8014 42.7482 64.3473 42.4647 64.2881C42.3431 64.2622 42.2271 64.2206 42.1188 64.1627C41.5435 63.9472 38.5628 63.9623 37.9032 64.2036C37.8452 64.2244 37.7047 64.2748 37.6442 64.2862C37.3601 64.346 30.7056 65.8001 30.7056 71.4566L30.618 77.3122Z" fill="#1C1C1C"/>
<path d="M40 59.409C36.3407 59.409 33.3638 56.422 33.3638 52.7482C33.3638 49.0751 36.3407 46.0862 40 46.0862C43.6593 46.0862 46.6362 49.0751 46.6362 52.7482C46.6362 56.422 43.6593 59.409 40 59.409ZM40 48.6668C37.7652 48.6668 35.9444 50.4984 35.9444 52.7482C35.9444 54.9975 37.764 56.8284 40 56.8284C42.236 56.8284 44.0556 54.9975 44.0556 52.7482C44.0556 50.4984 42.2347 48.6668 40 48.6668Z" fill="#1C1C1C"/>
<path d="M77.4193 80C77.3626 80 77.3059 79.9963 77.248 79.9887L76.5316 79.8929H56.0377C55.6918 79.8929 55.3616 79.755 55.1191 79.5086C54.8765 79.2623 54.7423 78.929 54.7473 78.5831L54.8544 71.439C54.8544 65.3472 60.3912 62.5177 63.743 61.7843C65.0195 61.3382 68.4904 61.279 69.8425 61.79C73.1949 62.5278 78.7097 65.3598 78.7097 71.458V78.7097C78.7097 79.0814 78.5496 79.4362 78.2686 79.6812C78.0336 79.8879 77.7306 80 77.4193 80ZM57.3456 77.3123H76.129V71.458C76.129 65.8014 69.4752 64.3473 69.191 64.2881C69.07 64.2623 68.9522 64.2207 68.8439 64.1615C68.2711 63.9485 65.2904 63.9636 64.6308 64.2024C64.5728 64.2245 64.4323 64.2749 64.3718 64.2862C64.0877 64.3461 57.4338 65.7989 57.4338 71.4567L57.3456 77.3123Z" fill="#1C1C1C"/>
<path d="M66.7276 59.409C63.0684 59.409 60.092 56.422 60.092 52.7482C60.092 49.0751 63.0684 46.0862 66.7276 46.0862C70.3875 46.0862 73.3651 49.0751 73.3651 52.7482C73.3651 56.422 70.3875 59.409 66.7276 59.409ZM66.7276 48.6668C64.4929 48.6668 62.6727 50.4984 62.6727 52.7482C62.6727 54.9975 64.4916 56.8284 66.7276 56.8284C68.9643 56.8284 70.7845 54.9975 70.7845 52.7482C70.7832 50.4984 68.9643 48.6668 66.7276 48.6668Z" fill="#1C1C1C"/>
<path d="M23.9629 80C23.9062 80 23.8489 79.9963 23.7909 79.9887L23.0752 79.8929H2.58062C2.23473 79.8929 1.90459 79.755 1.66202 79.5086C1.41946 79.2623 1.28526 78.929 1.2903 78.5831L1.3974 71.439C1.3974 65.3472 6.9342 62.5177 10.2866 61.7843C11.5612 61.3382 15.0334 61.279 16.3861 61.79C19.7398 62.5278 25.2545 65.361 25.2545 71.458V78.7097C25.2545 79.0814 25.0945 79.4362 24.8129 79.6812C24.5766 79.8879 24.2735 80 23.9629 80ZM3.89047 77.3123H22.6739V71.458C22.6739 65.8002 16.0194 64.3473 15.7359 64.2881C15.6143 64.2623 15.4971 64.2207 15.3887 64.1615C14.8154 63.9485 11.8347 63.9636 11.1756 64.2024C11.1177 64.2245 10.9772 64.2749 10.9161 64.2862C10.6325 64.3461 3.97805 65.7989 3.97805 71.4567L3.89047 77.3123Z" fill="#1C1C1C"/>
<path d="M13.2725 59.409C9.61321 59.409 6.63501 56.422 6.63501 52.7482C6.63501 49.0751 9.61321 46.0862 13.2725 46.0862C16.9318 46.0862 19.9087 49.0751 19.9087 52.7482C19.9087 56.422 16.9318 59.409 13.2725 59.409ZM13.2725 48.6668C11.0365 48.6668 9.21566 50.4984 9.21566 52.7482C9.21566 54.9975 11.0352 56.8284 13.2725 56.8284C15.5072 56.8284 17.3281 54.9975 17.3281 52.7482C17.3281 50.4984 15.5085 48.6668 13.2725 48.6668Z" fill="#1C1C1C"/>
<path d="M48.5509 15.884H51.1315V29.0311H48.5509V15.884Z" fill="#1C1C1C"/>
<path d="M53.7576 20.6055H56.3382V29.031H53.7576V20.6055Z" fill="#1C1C1C"/>
<path d="M58.7745 16.7136H61.3552V29.0309H58.7745V16.7136Z" fill="#1C1C1C"/>
<path d="M65.6943 6.75464H68.275V29.031H65.6943V6.75464Z" fill="#1C1C1C"/>
<path d="M73.6518 34.8116H36.1587C35.4455 34.8116 34.8684 34.2351 34.8684 33.5213C34.8684 32.8075 35.4455 32.231 36.1587 32.231H72.3614V2.58065H29.021V25.9885C29.021 26.7017 28.4438 27.2789 27.7306 27.2789C27.0168 27.2789 26.4403 26.7017 26.4403 25.9885V1.29032C26.4403 0.576487 27.0168 0 27.7306 0H73.6518C74.3656 0 74.9421 0.576487 74.9421 1.29032V33.5213C74.9421 34.2332 74.3656 34.8116 73.6518 34.8116Z" fill="#1C1C1C"/>
<path d="M16.4 16.6362C12.4093 16.6362 9.16272 13.377 9.16272 9.36928C9.16272 5.36412 12.4106 2.10303 16.4 2.10303C20.39 2.10303 23.6379 5.36223 23.6379 9.36928C23.6379 13.3757 20.3913 16.6362 16.4 16.6362ZM16.4 4.68367C13.8326 4.68367 11.7434 6.78549 11.7434 9.36928C11.7434 11.9537 13.8326 14.0555 16.4 14.0555C18.968 14.0555 21.0573 11.9537 21.0573 9.36928C21.0573 6.78549 18.968 4.68367 16.4 4.68367Z" fill="#1C1C1C"/>
<path d="M23.5534 44.0153H9.66477C8.95093 44.0153 8.37445 43.4389 8.37445 42.725V40.7599C7.77969 40.9483 7.13705 40.9861 6.50071 40.8544C4.80023 40.5111 3.56409 38.9561 3.56409 37.1611V30.9111C3.56409 27.3457 4.62697 23.9082 6.63994 20.9716C7.34181 19.9472 8.27238 19.1703 9.3277 18.7268C10.4133 18.27 11.5587 18.04 12.7381 18.04H20.4492C20.6401 18.04 20.831 18.0476 21.0206 18.0634C23.1628 18.236 25.1745 19.5017 26.4012 21.4492L29.3006 26.0592L35.0308 29.1823C37.0016 30.2572 37.9353 32.5266 37.2517 34.578C36.8567 35.7599 36.0206 36.6968 34.8954 37.2153C33.7934 37.7263 32.51 37.7565 31.381 37.2997C31.3344 37.2815 31.289 37.2594 31.2468 37.2348L24.8721 33.7482L24.845 42.7307C24.8412 43.4401 24.2647 44.0153 23.5534 44.0153ZM10.9551 41.4347H22.2675L22.2958 31.5689L22.3021 29.5559C22.3046 28.844 22.8811 28.27 23.5924 28.27H23.5962C24.3082 28.2725 24.8828 28.849 24.8828 29.5603V29.5641L24.879 30.8091L32.408 34.9276C32.871 35.0984 33.3663 35.0763 33.813 34.8684C34.2855 34.6517 34.6377 34.2566 34.804 33.7589C35.0875 32.9084 34.6541 31.9135 33.7959 31.4454L27.7702 28.1616C27.5768 28.0558 27.4143 27.9033 27.2958 27.7149L24.2155 22.8208C23.4204 21.5576 22.1471 20.741 20.8114 20.6339C20.6905 20.6232 20.5689 20.6182 20.4479 20.6182H12.7368C11.9033 20.6182 11.0943 20.782 10.3276 21.1033C9.72903 21.3534 9.18972 21.8127 8.76885 22.427C7.05199 24.9346 6.14473 27.8674 6.14473 30.9086V37.1611C6.14473 37.725 6.51898 38.2259 7.01419 38.3254C7.48168 38.4193 7.8093 38.2259 7.95988 38.1018C8.22324 37.8863 8.37445 37.5662 8.37445 37.2248V28.6411C8.37445 27.9279 8.95093 27.3508 9.66477 27.3508C10.378 27.3508 10.9551 27.9279 10.9551 28.6411V41.4347Z" fill="#1C1C1C"/>
<path d="M32.9606 30.1663L41.6728 17.2366L43.8118 18.6781L35.0996 31.6078L32.9606 30.1663Z" fill="#1C1C1C"/>
</g>
<defs>
<clipPath id="clip0_1_2139">
<rect width="80" height="80" fill="white"/>
</clipPath>
</defs>
</svg>
