<svg width="34" height="34" viewBox="0 0 34 34" fill="none" xmlns="http://www.w3.org/2000/svg">
<g clip-path="url(#clip0_1_2055)">
<path fill-rule="evenodd" clip-rule="evenodd" d="M13.5695 30.894C13.5695 29.7189 14.5221 28.7663 15.6972 28.7663H18.3028C18.8671 28.7663 19.4083 28.9904 19.8073 29.3895C20.2064 29.7885 20.4305 30.3297 20.4305 30.894C20.4305 32.0692 19.4779 33.0218 18.3028 33.0218H15.6972C14.5221 33.0218 13.5695 32.0692 13.5695 30.894ZM29.5268 25.4074C29.1714 25.4345 28.7414 25.4501 28.3095 25.4248C28.0794 26.5917 27.5078 27.674 26.6545 28.5273C25.5218 29.66 23.9855 30.2964 22.3836 30.2964H21.5717C21.6075 30.4923 21.6259 30.6922 21.6259 30.894C21.6259 31.0981 21.6075 31.2979 21.5722 31.4917H22.3836C24.3025 31.4917 26.1429 30.7294 27.4998 29.3725C28.5822 28.29 29.2864 26.8998 29.5268 25.4074ZM30.1348 24.1355C31.0785 23.9764 31.9567 23.5277 32.6422 22.8422C33.5116 21.9728 34 20.7936 34 19.5641V16.739C34 15.5094 33.5116 14.3303 32.6422 13.4609C31.7728 12.5915 30.5936 12.103 29.3641 12.103H29.0555C28.5623 5.87702 23.3532 0.978027 17 0.978027C10.6468 0.978027 5.43774 5.87702 4.94448 12.103H4.63589C3.40638 12.103 2.2272 12.5915 1.35781 13.4609C0.488417 14.3303 0 15.5094 0 16.739V19.5641C0 20.7936 0.488417 21.9728 1.35781 22.8422C2.2272 23.7116 3.40638 24.2 4.63589 24.2H6.00392C6.5713 24.2 7.03123 23.74 7.03123 23.1727V13.0718C7.03123 7.56619 11.4944 3.10303 17 3.10303C22.5056 3.10303 26.9688 7.56619 26.9688 13.0718V23.1727C26.9688 23.5733 27.1981 23.9204 27.5326 24.0898C28.4536 24.4093 29.8817 24.1782 30.1348 24.1355Z" fill="white"/>
</g>
<defs>
<clipPath id="clip0_1_2055">
<rect width="34" height="34" fill="white"/>
</clipPath>
</defs>
</svg>
