<svg width="18" height="18" viewBox="0 0 18 18" fill="none" xmlns="http://www.w3.org/2000/svg">
<g clip-path="url(#clip0_131_12)">
<path d="M6.7502 14.0625L10.5021 17.8144C10.6068 17.9183 10.7483 17.9769 10.8958 17.9775C10.9714 17.9789 11.0463 17.9635 11.1152 17.9325C11.2169 17.8894 11.3036 17.8174 11.3646 17.7254C11.4257 17.6334 11.4582 17.5254 11.4583 17.415V7.3575L17.8371 0.961875C17.9151 0.882774 17.968 0.782327 17.989 0.673208C18.01 0.564089 17.9983 0.451187 17.9552 0.34875C17.913 0.246027 17.8413 0.158093 17.7492 0.0960306C17.6572 0.0339682 17.5488 0.000554333 17.4377 0L0.562701 0C0.451649 0.000554333 0.343246 0.0339682 0.251153 0.0960306C0.159061 0.158093 0.0873993 0.246027 0.0452005 0.34875C0.00212459 0.451187 -0.00964442 0.564089 0.0113785 0.673208C0.0324015 0.782327 0.0852743 0.882774 0.163326 0.961875L6.56458 7.3575V13.6856C6.57546 13.8305 6.64197 13.9656 6.7502 14.0625ZM1.91833 1.125H16.0821L10.4571 6.75C10.4039 6.8021 10.3616 6.86422 10.3327 6.93278C10.3037 7.00133 10.2886 7.07495 10.2883 7.14938V16.0819L7.66708 13.455V7.12688C7.66677 7.05245 7.65169 6.97883 7.62273 6.91028C7.59376 6.84172 7.55147 6.7796 7.49833 6.7275L1.91833 1.125Z" fill="#E91515"/>
</g>
<defs>
<clipPath id="clip0_131_12">
<rect width="18" height="18" fill="white"/>
</clipPath>
</defs>
</svg>
