<svg width="80" height="80" viewBox="0 0 80 80" fill="none" xmlns="http://www.w3.org/2000/svg">
<g clip-path="url(#clip0_1_2219)">
<path d="M18.277 14.7611C18.9242 14.7611 19.4489 14.2364 19.4489 13.5892C19.4489 12.9421 18.9242 12.4174 18.277 12.4174C17.6298 12.4174 17.1052 12.9421 17.1052 13.5892C17.1052 14.2364 17.6297 14.7611 18.277 14.7611ZM8.90203 14.7611C9.54922 14.7611 10.0739 14.2364 10.0739 13.5892C10.0739 12.9421 9.54922 12.4174 8.90203 12.4174C8.25484 12.4174 7.73016 12.9421 7.73016 13.5892C7.73016 14.2364 8.25469 14.7611 8.90203 14.7611ZM13.5895 14.7611C14.2367 14.7611 14.7614 14.2364 14.7614 13.5892C14.7614 12.9421 14.2367 12.4174 13.5895 12.4174C12.9423 12.4174 12.4177 12.9421 12.4177 13.5892C12.4177 14.2364 12.9422 14.7611 13.5895 14.7611ZM13.3325 27.1757C13.3397 27.1758 13.3469 27.1758 13.3541 27.1758L23.9492 27.1785H23.9498C24.6819 27.1785 25.3033 26.7042 25.4966 25.9983C25.69 25.2921 25.3964 24.5672 24.7664 24.1946L23.155 23.2411C25.745 20.6741 27.2017 17.1716 27.1786 13.5019C27.1322 6.16315 21.1256 0.107058 13.7891 0.00143269C6.18672 -0.107786 0 6.04174 0 13.5896C0 20.8275 5.96375 27.0189 13.3325 27.1757ZM5.69531 5.58018C7.85625 3.45018 10.7125 2.30253 13.7555 2.34487C19.8263 2.43221 24.7964 7.44378 24.8348 13.5166C24.8556 16.793 23.4506 19.9088 20.98 22.0647C20.5669 22.425 20.3505 22.9658 20.4005 23.5113C20.4505 24.0564 20.7619 24.5483 21.233 24.8269L21.2447 24.8338L13.3656 24.8319C7.27469 24.715 2.34375 19.6972 2.34375 13.5896C2.34375 10.555 3.53406 7.71065 5.69531 5.58018ZM78.8281 77.6563H77.6562V60.2047C77.6562 55.6325 74.9545 51.4807 70.7602 49.6214L64.5842 46.9744C66.087 46.5002 67.4447 45.6546 68.5494 44.4816C70.2161 42.7121 71.1719 40.311 71.1719 37.8939C71.1719 35.673 70.3959 33.5767 68.9277 31.8313C67.0911 29.6505 66.0797 26.8789 66.0797 24.0267V18.4111C66.0797 13.4927 64.1642 8.86956 60.6864 5.39346C57.2086 1.91534 52.585 2.64422e-05 47.6672 2.64422e-05C37.5153 2.64422e-05 29.2563 8.25909 29.2563 18.411V23.8438C29.2569 26.795 28.097 29.6121 26.2123 31.8828C23.8403 34.7407 23.3475 38.6046 24.9264 41.9666C26.0983 44.4622 28.212 46.2552 30.7425 47.0141L24.6097 49.681C20.307 51.4916 17.5267 55.6777 17.5267 60.3455V74.1408C17.5267 74.788 18.0512 75.3127 18.6986 75.3127C19.3459 75.3127 19.8705 74.788 19.8705 74.1408V60.3455C19.8705 56.6233 22.0875 53.285 25.5316 51.8358L33.2188 48.493V55.5469H29.687C28.6917 55.5469 27.7391 55.9713 27.0733 56.7113C26.4077 57.4513 26.0861 58.4433 26.1911 59.433L28.1228 77.6563H1.17188C0.524531 77.6563 0 78.181 0 78.8282C0 79.4753 0.524531 80 1.17188 80H78.8281C79.4755 80 80 79.4753 80 78.8282C80 78.181 79.4755 77.6563 78.8281 77.6563ZM67.1345 33.3403C68.2425 34.6575 68.8281 36.2321 68.8281 37.8938C68.8281 39.7199 68.1047 41.5352 66.8433 42.8746C65.5077 44.2925 63.6728 45.0735 61.6767 45.0735H60.1495L58.1434 44.2136C56.3911 43.4621 55.1923 41.851 54.9473 39.9964C58.5631 38.0496 61.0267 34.2286 61.0267 29.8422V21.0324C61.3697 21.0557 61.7123 21.0683 62.0541 21.0683C62.6177 21.0683 63.1791 21.0363 63.7361 20.9732V24.0266C63.7359 27.4303 64.9431 30.7382 67.1345 33.3403ZM47.952 51.8405C43.7597 51.9147 39.5989 51.3835 35.5625 50.2639V47.4738L35.9014 47.3264C35.9041 47.3253 35.9067 47.3241 35.9095 47.323L38.0002 46.4139C40.3273 45.4022 41.9719 43.33 42.4705 40.9085C43.4909 41.2052 44.568 41.3674 45.683 41.3674H49.5016C50.6208 41.3674 51.7019 41.2039 52.7258 40.905C53.2408 43.3155 54.8916 45.3691 57.2198 46.3678L59.4511 47.3241C59.4525 47.3247 59.4539 47.3253 59.4553 47.3258L59.6206 47.3966V50.0336C55.828 51.1636 51.907 51.7714 47.952 51.8405ZM59.6203 52.4736V55.5471H35.5625V52.6908C39.3616 53.6869 43.2622 54.191 47.1892 54.191C47.457 54.191 47.725 54.1886 47.993 54.1839C51.9289 54.1152 55.8327 53.54 59.6203 52.4736ZM63.7359 18.61C60.508 19.0461 56.8694 18.1814 54.3625 16.2391C53.8511 15.8428 53.115 15.936 52.7184 16.4477C52.322 16.9592 52.4155 17.6953 52.927 18.0917C54.5659 19.3614 56.5427 20.2558 58.683 20.7067V27.0866C58.1198 28.37 57.493 29.4374 56.0797 30.6033C55.4847 31.0942 54.8334 31.5019 54.1359 31.8253C53.5664 30.7139 52.4097 29.9511 51.0775 29.9511H48.3313C46.437 29.9511 44.8961 31.4922 44.8961 33.3863C44.8961 35.2803 46.437 36.8214 48.3313 36.8214H51.0775C52.6716 36.8214 54.0153 35.7299 54.4011 34.2552C55.9687 33.6578 58.5248 31.5269 58.5255 31.5261C57.7319 35.7866 53.9888 39.023 49.5017 39.023H45.6828C40.6203 39.023 36.5016 34.9044 36.5016 29.8417V20.7833C40.4817 20.1594 44.2419 18.8125 47.6903 16.7728C52.9409 13.6671 56.3089 9.60862 58.3414 6.40221C61.8191 9.49956 63.7973 13.94 63.7359 18.61ZM52.1686 33.3896C52.1669 33.99 51.6781 34.478 51.0773 34.478H48.3311C47.7292 34.478 47.2397 33.9883 47.2397 33.3866C47.2397 32.7849 47.7294 32.2952 48.3311 32.2952H51.0773C51.678 32.2952 52.1666 32.7828 52.1686 33.383V33.3896ZM31.6 18.411C31.6 9.55143 38.8077 2.34378 47.6672 2.34378C50.8445 2.34378 53.8808 3.26096 56.4753 4.96846C54.6048 7.96675 51.4566 11.8224 46.497 14.7561C43.0947 16.7686 39.3627 18.0535 35.4042 18.575H35.3311C35.3306 18.575 35.3302 18.575 35.3295 18.575C35.3289 18.575 35.3286 18.575 35.328 18.575H31.5998V18.411H31.6ZM27.0477 40.9703C25.8594 38.4394 26.2303 35.5308 28.0144 33.3814C30.253 30.6844 31.6025 27.3519 31.6 23.8438V20.9188H34.1578V29.8422C34.1578 34.2311 36.6245 38.0539 40.2436 39.9997C40.0172 41.8683 38.822 43.5007 37.0655 44.2644L35.2048 45.0735H33.5063C30.7109 45.0735 28.2362 43.5013 27.0477 40.9703ZM67.8425 59.1861L65.8845 77.6563H30.4797L28.5217 59.1861C28.4863 58.8513 28.5906 58.5291 28.8158 58.2789C29.0409 58.0286 29.3505 57.8908 29.687 57.8908H66.6772C67.0138 57.8908 67.3233 58.0286 67.5484 58.2789C67.7736 58.5291 67.878 58.8513 67.8425 59.1861ZM75.3125 77.6563H68.2414L70.1731 59.4333C70.2781 58.4435 69.9564 57.4514 69.2909 56.7114C68.6252 55.9714 67.6727 55.5471 66.6772 55.5471H61.9641V48.4013L69.8236 51.7699C73.158 53.248 75.3125 56.5588 75.3125 60.2047V77.6563ZM48.182 63.3203C45.7266 63.3203 43.7289 65.318 43.7289 67.7735C43.7289 70.2289 45.7266 72.2266 48.182 72.2266C50.6375 72.2266 52.6352 70.2289 52.6352 67.7735C52.6352 65.318 50.6375 63.3203 48.182 63.3203ZM48.182 69.8828C47.0189 69.8828 46.0727 68.9366 46.0727 67.7735C46.0727 66.6103 47.0189 65.6641 48.182 65.6641C49.3452 65.6641 50.2914 66.6103 50.2914 67.7735C50.2914 68.9366 49.3453 69.8828 48.182 69.8828Z" fill="#1C1C1C"/>
</g>
<defs>
<clipPath id="clip0_1_2219">
<rect width="80" height="80" fill="white"/>
</clipPath>
</defs>
</svg>
