<svg width="80" height="80" viewBox="0 0 80 80" fill="none" xmlns="http://www.w3.org/2000/svg">
<g clip-path="url(#clip0_1_2157)">
<mask id="mask0_1_2157" style="mask-type:luminance" maskUnits="userSpaceOnUse" x="0" y="0" width="80" height="80">
<path d="M0 7.62939e-06H80V80H0V7.62939e-06Z" fill="white"/>
</mask>
<g mask="url(#mask0_1_2157)">
<path d="M57.7429 26.841H53.2905C49.3449 26.841 46.1465 30.0396 46.1465 33.9852C46.1465 37.9309 49.3449 41.1291 53.2905 41.1291C56.8348 41.1291 59.7082 44.0024 59.7082 47.5469V58.6005C59.7082 64.9012 67.8115 67.5434 71.4715 62.4148" stroke="#1C1C1C" stroke-width="2" stroke-miterlimit="10" stroke-linecap="round" stroke-linejoin="round"/>
<path d="M45.1355 21.0525H40.5709C38.6402 21.0525 37.0751 19.4873 37.0751 17.5567C37.0751 15.6261 38.6402 14.0609 40.5709 14.0609H45.1355C47.0662 14.0609 48.6313 15.6261 48.6313 17.5567C48.6313 19.4873 47.0662 21.0525 45.1355 21.0525Z" stroke="#1C1C1C" stroke-width="2" stroke-miterlimit="10" stroke-linecap="round" stroke-linejoin="round"/>
<path d="M23.4583 16.34C23.4583 19.4171 22.2111 22.2028 20.1944 24.2196C18.178 26.236 15.3922 27.4832 12.3152 27.4832C9.33922 27.4832 6.63578 26.3167 4.63703 24.416C2.5025 22.3858 1.17188 19.5183 1.17188 16.34C1.17188 10.1858 6.16094 5.19691 12.3152 5.19691C18.4692 5.19691 23.4583 10.1858 23.4583 16.34Z" stroke="#1C1C1C" stroke-width="2" stroke-miterlimit="10" stroke-linecap="round" stroke-linejoin="round"/>
<path d="M12.315 20.6687C9.84895 20.6687 7.84973 18.6695 7.84973 16.2034V14.4309C7.84973 11.9648 9.84895 9.96558 12.315 9.96558C14.7811 9.96558 16.7804 11.9648 16.7804 14.4309V16.2034C16.7804 18.6695 14.7811 20.6687 12.315 20.6687Z" stroke="#1C1C1C" stroke-width="2" stroke-miterlimit="10" stroke-linecap="round" stroke-linejoin="round"/>
<path d="M78.8282 31.8776C78.8282 34.9547 77.581 37.7404 75.5644 39.7572C73.5478 41.7736 70.7621 43.0208 67.685 43.0208C64.7091 43.0208 62.0057 41.8543 60.0071 39.9536C57.8725 37.9234 56.5417 35.0559 56.5417 31.8776C56.5417 25.7234 61.5308 20.7345 67.685 20.7345C73.8391 20.7345 78.8282 25.7234 78.8282 31.8776Z" stroke="#1C1C1C" stroke-width="2" stroke-miterlimit="10" stroke-linecap="round" stroke-linejoin="round"/>
<path d="M67.6849 36.2065C65.2188 36.2065 63.2196 34.2073 63.2196 31.7412V29.9687C63.2196 27.5026 65.2188 25.5034 67.6849 25.5034C70.151 25.5034 72.1502 27.5026 72.1502 29.9687V31.7412C72.1502 34.2073 70.151 36.2065 67.6849 36.2065Z" stroke="#1C1C1C" stroke-width="2" stroke-miterlimit="10" stroke-linecap="round" stroke-linejoin="round"/>
<path d="M38.6376 57.1587C36.1715 57.1587 34.1722 55.1595 34.1722 52.6934V50.9209C34.1722 48.4548 36.1715 46.4556 38.6376 46.4556C41.1036 46.4556 43.1029 48.4548 43.1029 50.9209V52.6934C43.1029 55.1595 41.1036 57.1587 38.6376 57.1587Z" stroke="#1C1C1C" stroke-width="2" stroke-miterlimit="10" stroke-linecap="round" stroke-linejoin="round"/>
<path d="M29.7202 46.1472L24.2107 44.821C22.359 44.3751 20.5774 45.7786 20.5774 47.6833V59.195C20.5774 60.2361 20.9911 61.2347 21.7272 61.9708L26.2865 66.53C26.8386 67.0822 27.1488 67.831 27.1488 68.6119V76.4446" stroke="#1C1C1C" stroke-width="2" stroke-miterlimit="10" stroke-linecap="round" stroke-linejoin="round"/>
<path d="M34.8889 78.2993V70.6892C34.8889 69.9084 35.1991 69.1595 35.7514 68.6074L40.5491 63.8098" stroke="#1C1C1C" stroke-width="2" stroke-miterlimit="10" stroke-linecap="round" stroke-linejoin="round"/>
<path d="M78.34 35.1912C78.5355 36.7666 78.6363 38.3716 78.6363 40.0001C78.6363 61.3384 61.3381 78.6365 40 78.6365C18.6619 78.6365 1.36377 61.3384 1.36377 40.0001C1.36377 34.4548 2.53205 29.1823 4.6358 24.4152" stroke="#1C1C1C" stroke-width="2" stroke-miterlimit="10" stroke-linecap="round" stroke-linejoin="round"/>
<path d="M22.7289 12.0564C22.7289 12.0564 23.4733 11.5733 24.7637 10.8951" stroke="#1C1C1C" stroke-width="2" stroke-linecap="round" stroke-linejoin="round"/>
<path d="M29.0837 8.93362C33.6386 7.17175 40.0259 5.6444 46.1466 7.41206C54.6411 9.8655 58.5144 14.5157 60.2708 18.0027" stroke="#1C1C1C" stroke-width="2" stroke-linecap="round" stroke-linejoin="round" stroke-dasharray="40.51 40.51"/>
<path d="M61.1803 20.1934C61.6345 21.5742 61.7065 22.4729 61.7065 22.4729" stroke="#1C1C1C" stroke-width="2" stroke-linecap="round" stroke-linejoin="round"/>
<path d="M16.7804 26.5514C16.7804 26.5514 33.3541 25.1151 34.3699 41.4053" stroke="#1C1C1C" stroke-width="2" stroke-miterlimit="10" stroke-linecap="round" stroke-linejoin="round" stroke-dasharray="40 40"/>
<path d="M49.2488 49.421C49.2488 49.421 60.1849 56.7048 67.6849 43.0209" stroke="#1C1C1C" stroke-width="2" stroke-miterlimit="10" stroke-linecap="round" stroke-linejoin="round" stroke-dasharray="40 40"/>
<path d="M64.6906 35.0534H62.6593C61.1948 35.0534 60.0074 36.2408 60.0074 37.7055V39.9531" stroke="#1C1C1C" stroke-width="2" stroke-miterlimit="10" stroke-linecap="round" stroke-linejoin="round"/>
<path d="M75.3624 39.9539V37.7053C75.3624 36.2406 74.1751 35.0534 72.7106 35.0534H70.6793" stroke="#1C1C1C" stroke-width="2" stroke-miterlimit="10" stroke-linecap="round" stroke-linejoin="round"/>
<path d="M9.3207 19.5158H7.28945C5.82492 19.5158 4.63757 20.7031 4.63757 22.1678V24.4153" stroke="#1C1C1C" stroke-width="2" stroke-miterlimit="10" stroke-linecap="round" stroke-linejoin="round"/>
<path d="M19.9926 24.4163V22.1677C19.9926 20.703 18.8052 19.5158 17.3407 19.5158H15.3094" stroke="#1C1C1C" stroke-width="2" stroke-miterlimit="10" stroke-linecap="round" stroke-linejoin="round"/>
<path d="M35.6432 56.0056H33.612C32.1474 56.0056 30.9601 57.1929 30.9601 58.6576V60.9053" stroke="#1C1C1C" stroke-width="2" stroke-miterlimit="10" stroke-linecap="round" stroke-linejoin="round"/>
<path d="M46.315 60.906V58.6574C46.315 57.1927 45.1276 56.0055 43.6631 56.0055H41.6318" stroke="#1C1C1C" stroke-width="2" stroke-miterlimit="10" stroke-linecap="round" stroke-linejoin="round"/>
<path d="M66.3286 11.7232C69.8638 15.0162 72.7806 18.9643 74.8861 23.374" stroke="#1C1C1C" stroke-width="2" stroke-miterlimit="10" stroke-linecap="round" stroke-linejoin="round"/>
<path d="M19.1058 7.49545C25.1297 3.61529 32.3019 1.36389 40.0001 1.36389C48.3279 1.36389 56.0402 3.99857 62.3491 8.47998" stroke="#1C1C1C" stroke-width="2" stroke-miterlimit="10" stroke-linecap="round" stroke-linejoin="round"/>
<path d="M41.1913 41.9808C46.1149 43.1353 49.7808 47.5545 49.7808 52.83C49.7808 55.907 48.5334 58.6928 46.517 60.7094C44.5005 62.726 41.7147 63.9731 38.6375 63.9731C35.6616 63.9731 32.9583 62.8066 30.9597 60.9058C28.825 58.8758 27.4944 56.0081 27.4944 52.83C27.4944 47.5545 31.1605 43.1352 36.0839 41.9808" stroke="#1C1C1C" stroke-width="2" stroke-miterlimit="10" stroke-linecap="round" stroke-linejoin="round"/>
<path d="M21.5656 36.5764L29.3837 32.0478C31.7209 30.6939 33.1599 28.1975 33.1599 25.4966C33.1599 22.8478 31.7757 20.3916 29.5096 19.0199L23.3931 15.317" stroke="#1C1C1C" stroke-width="2" stroke-miterlimit="10" stroke-linecap="round" stroke-linejoin="round"/>
<path d="M4.3761 54.981C5.66985 58.053 10.2522 57.1216 10.2522 53.7882V49.6058C10.2522 45.5974 12.3875 41.8927 15.8561 39.8837L17.1389 39.1405" stroke="#1C1C1C" stroke-width="2" stroke-miterlimit="10" stroke-linecap="round" stroke-linejoin="round"/>
</g>
</g>
<defs>
<clipPath id="clip0_1_2157">
<rect width="80" height="80" fill="white"/>
</clipPath>
</defs>
</svg>
