<svg width="60" height="60" viewBox="0 0 60 60" fill="none" xmlns="http://www.w3.org/2000/svg">
<g clip-path="url(#clip0_1_1742)">
<path d="M54.2887 25.4466H34.5664V5.72415C34.5664 2.56284 32.0035 0 28.8421 0H5.6852C2.53815 0.0143918 -0.00139147 2.57711 0.0130003 5.72403V28.8551C0.0130003 31.9877 2.55254 34.5273 5.6852 34.5273H25.4596V54.3017C25.4596 57.4344 27.9992 59.9739 31.1318 59.9739H54.2627C57.4097 59.9883 59.9725 57.4489 59.9869 54.3018V31.1708C59.987 28.0196 57.4399 25.4609 54.2887 25.4466ZM25.4596 31.1968V31.9515L5.6852 31.9254C3.98953 31.9254 2.61499 30.5507 2.61499 28.8552V5.72415C2.6006 4.01421 3.97501 2.61626 5.68507 2.60187C5.6852 2.60187 5.6852 2.60187 5.68532 2.60187H28.8162C30.5406 2.60187 31.9385 3.99982 31.9385 5.72415V25.4726H31.132C27.9848 25.487 25.4453 28.0497 25.4596 31.1968ZM57.411 54.3018C57.3967 56.0118 55.9989 57.3864 54.289 57.372C54.2888 57.372 54.2888 57.372 54.2887 57.372H31.1578C29.4621 57.372 28.0876 55.9975 28.0876 54.3018V31.1708C28.0732 29.4609 29.4476 28.0629 31.1577 28.0485C31.1578 28.0485 31.1578 28.0485 31.1579 28.0485H54.2887C56.0131 28.0485 57.411 29.4463 57.411 31.1708V54.3018Z" fill="#E91515"/>
<path d="M50.4121 50.8412L43.9593 33.6946C43.6396 33.0192 42.833 32.7308 42.1575 33.0506C41.8749 33.1844 41.6473 33.412 41.5136 33.6946L35.2169 50.8152C34.9654 51.4907 35.3091 52.242 35.9844 52.4935C36.6599 52.7449 37.4112 52.4013 37.6626 51.7259L39.1978 47.6149H46.4312L47.9663 51.7259C48.1526 52.241 48.6415 52.5843 49.1893 52.5846C49.9077 52.5842 50.49 52.0016 50.4896 51.2831C50.4895 51.1323 50.4632 50.9829 50.4121 50.8412ZM40.0824 45.039L42.6843 37.8837L45.2862 45.039H40.0824Z" fill="#E91515"/>
<path d="M25.5377 25.5507C23.3458 25.5465 21.1996 24.9242 19.3452 23.7554C21.6385 21.4043 23.0533 18.3358 23.3521 15.0651H25.5377C26.2562 15.0651 26.8387 14.4826 26.8387 13.7641C26.8387 13.0456 26.2562 12.4631 25.5377 12.4631H18.5906V7.70163C18.5906 6.98314 18.0081 6.40063 17.2896 6.40063C16.5711 6.40063 15.9886 6.98314 15.9886 7.70163V12.4631H8.98959C8.2711 12.4631 7.6886 13.0456 7.6886 13.7641C7.6886 14.4826 8.2711 15.0651 8.98959 15.0651H11.2012C11.5021 18.3353 12.9166 21.4031 15.2081 23.7554C13.352 24.9203 11.2069 25.5422 9.01557 25.5507C8.29708 25.5507 7.71458 26.1332 7.71458 26.8517C7.71458 27.5702 8.29708 28.1527 9.01557 28.1527C11.9758 28.1588 14.8657 27.2501 17.2896 25.5509C19.704 27.2496 22.5856 28.1586 25.5377 28.1527C26.2562 28.1527 26.8387 27.5702 26.8387 26.8517C26.8387 26.1332 26.2562 25.5507 25.5377 25.5507ZM13.8812 15.0651H20.6982C20.4225 17.7647 19.2176 20.2847 17.2896 22.1943C15.3634 20.2835 14.1589 17.7641 13.8812 15.0651Z" fill="#E91515"/>
<path d="M59.935 19.6183C59.9209 8.82985 51.209 0.0714711 40.4207 0C39.7023 0 39.1198 0.582502 39.1198 1.30099C39.1198 2.01949 39.7023 2.60199 40.4207 2.60199C49.4828 2.61882 56.9418 9.73471 57.3851 18.7858H53.092C52.3735 18.7858 51.791 19.3683 51.791 20.0868C51.791 20.8053 52.3735 21.3878 53.092 21.3878H58.634C59.3525 21.3878 59.935 20.8053 59.935 20.0868C59.9424 20.0089 59.9424 19.9306 59.935 19.8526C59.9424 19.7747 59.9424 19.6963 59.935 19.6183Z" fill="#E91515"/>
<path d="M19.6054 57.3981C10.553 57.382 3.09782 50.2813 2.64106 41.2403H6.90811C7.6266 41.2403 8.2091 40.6578 8.2091 39.9393C8.2091 39.2208 7.6266 38.6384 6.90811 38.6384H1.39215C0.673654 38.6384 0.0911521 39.2209 0.0911521 39.9394C0.0851759 40.0087 0.0851759 40.0783 0.0911521 40.1476C0.0851759 40.2169 0.0851759 40.2865 0.0911521 40.3558C0.0909082 51.1545 8.80697 59.9286 19.6054 60.0002C20.3239 60.0002 20.9064 59.4177 20.9064 58.6992C20.9064 57.9808 20.3239 57.3981 19.6054 57.3981Z" fill="#E91515"/>
</g>
<defs>
<clipPath id="clip0_1_1742">
<rect width="60" height="60" fill="white"/>
</clipPath>
</defs>
</svg>
