<svg width="18" height="18" viewBox="0 0 18 18" fill="none" xmlns="http://www.w3.org/2000/svg">
<g clip-path="url(#clip0_1_1884)">
<path d="M9.0001 0C6.0301 0 3.6001 2.43 3.6001 5.4C3.6001 8.37 9.0001 15.3 9.0001 15.3C9.0001 15.3 14.4001 8.37 14.4001 5.4C14.4001 2.43 11.9701 0 9.0001 0ZM9.0001 7.2C8.0101 7.2 7.2001 6.39 7.2001 5.4C7.2001 4.41 8.0101 3.6 9.0001 3.6C9.9901 3.6 10.8001 4.41 10.8001 5.4C10.8001 6.39 9.9901 7.2 9.0001 7.2Z" fill="#F73F3F"/>
<path d="M14.67 9.99002C14.4 10.53 14.13 11.07 13.77 11.61C15.3 12.15 16.2 12.87 16.2 13.5C16.2 14.58 13.32 16.2 9 16.2C4.68 16.2 1.8 14.58 1.8 13.5C1.8 12.87 2.7 12.15 4.23 11.52C3.87 10.98 3.6 10.44 3.33 9.90002C1.26 10.8 0 12.06 0 13.5C0 16.02 3.78 18 8.82 18C13.32 18 18 16.47 18 13.5C18 12.06 16.74 10.8 14.67 9.99002Z" fill="#F73F3F"/>
</g>
<defs>
<clipPath id="clip0_1_1884">
<rect width="18" height="18" rx="5" fill="white"/>
</clipPath>
</defs>
</svg>
