<svg width="18" height="18" viewBox="0 0 18 18" fill="none" xmlns="http://www.w3.org/2000/svg">
<path d="M8.99961 0C6.02961 0 3.59961 2.43 3.59961 5.4C3.59961 8.37 8.99961 15.3 8.99961 15.3C8.99961 15.3 14.3996 8.37 14.3996 5.4C14.3996 2.43 11.9696 0 8.99961 0ZM8.99961 7.2C8.00961 7.2 7.19961 6.39 7.19961 5.4C7.19961 4.41 8.00961 3.6 8.99961 3.6C9.98961 3.6 10.7996 4.41 10.7996 5.4C10.7996 6.39 9.98961 7.2 8.99961 7.2Z" fill="#F73F3F"/>
<path d="M14.67 9.9899C14.4 10.5299 14.13 11.0699 13.77 11.6099C15.3 12.1499 16.2 12.8699 16.2 13.4999C16.2 14.5799 13.32 16.1999 9 16.1999C4.68 16.1999 1.8 14.5799 1.8 13.4999C1.8 12.8699 2.7 12.1499 4.23 11.5199C3.87 10.9799 3.6 10.4399 3.33 9.8999C1.26 10.7999 0 12.0599 0 13.4999C0 16.0199 3.78 17.9999 8.82 17.9999C13.32 17.9999 18 16.4699 18 13.4999C18 12.0599 16.74 10.7999 14.67 9.9899Z" fill="#F73F3F"/>
</svg>
