<svg width="80" height="80" viewBox="0 0 80 80" fill="none" xmlns="http://www.w3.org/2000/svg">
<mask id="mask0_1_2079" style="mask-type:luminance" maskUnits="userSpaceOnUse" x="0" y="0" width="80" height="80">
<path d="M0 -3.17891e-07H80V80H0V-3.17891e-07Z" fill="white"/>
</mask>
<g mask="url(#mask0_1_2079)">
<path fill-rule="evenodd" clip-rule="evenodd" d="M5.85938 80C2.62342 80 0 77.3766 0 74.1406V15.1487C0 11.9128 2.62342 9.28937 5.85938 9.28937H36.8811C37.4226 4.06765 41.8467 -6.86646e-05 47.2187 -6.86646e-05C52.5906 -6.86646e-05 57.0148 4.06765 57.5563 9.28937H74.1406C77.3766 9.28937 80 11.9128 80 15.1487V74.1406C80 77.3766 77.3766 80 74.1406 80H5.85938ZM40.2694 22.7495C38.5708 19.2848 37.174 15.0695 36.8817 11.6331H15.9648L47.311 42.9791L61.3011 28.7107C61.7543 28.2486 62.4962 28.2412 62.9583 28.6944C63.4205 29.1475 63.4278 29.8894 62.9747 30.3516L48.1559 45.465C47.9369 45.6884 47.6377 45.8149 47.3249 45.8164C47.0121 45.818 46.7117 45.6944 46.4905 45.4732L12.6503 11.6331H5.85938C5.32272 11.6331 4.81414 11.7534 4.35911 11.9684L17.9391 25.5486C18.3967 26.0062 18.3967 26.7482 17.9391 27.2058L2.34375 42.8012V51.5697L22.3234 31.59C22.5431 31.3702 22.8412 31.2467 23.152 31.2467C23.4628 31.2467 23.7609 31.3702 23.9807 31.59L70.0469 77.6562H74.1406C75.3716 77.6562 76.4548 77.0235 77.0828 76.0656L52.7286 51.7114C52.2761 51.2589 52.2702 50.5271 52.7154 50.0675L77.6562 24.315V15.3787L67.6238 25.6105C67.1707 26.0726 66.4287 26.0799 65.9666 25.6268C65.5045 25.1737 65.4972 24.4317 65.9503 23.9696L76.8251 12.8786C76.1802 12.1168 75.2169 11.6331 74.1406 11.6331H57.5615C57.2781 15.3083 55.8336 19.5614 54.0944 22.9961C53.1175 24.9252 52.0166 26.6586 50.918 27.9293C50.3695 28.5638 49.7951 29.1139 49.2094 29.5138C48.6363 29.9051 47.9553 30.2187 47.2187 30.2187C46.4563 30.2187 45.756 29.8927 45.1668 29.4814C44.5668 29.0625 43.9843 28.4873 43.4321 27.8277C42.3263 26.5066 41.2328 24.7143 40.2694 22.7495ZM77.6562 27.6839V73.3245L55.2013 50.8696L77.6562 27.6839ZM15.4532 26.3772L2.6938 13.6177C2.46952 14.0805 2.34375 14.5999 2.34375 15.1487V39.4866L15.4532 26.3772ZM66.7324 77.6562H5.85938C3.91783 77.6562 2.34375 76.0822 2.34375 74.1406V54.8843L23.152 34.0759L66.7324 77.6562ZM42.3739 21.7177C40.5343 17.9656 39.1691 13.4825 39.1691 10.3695C39.1691 5.93969 42.7702 2.34368 47.2187 2.34368C51.6671 2.34368 55.2682 5.93969 55.2682 10.3695C55.2682 13.7929 53.8584 18.274 52.0034 21.9373C51.0814 23.758 50.0802 25.3147 49.145 26.3965C48.6765 26.9384 48.251 27.3302 47.8878 27.5782C47.512 27.8348 47.295 27.8749 47.2187 27.8749C47.1235 27.8749 46.8925 27.8277 46.5084 27.5596C46.1352 27.299 45.7025 26.8886 45.2293 26.3233C44.2846 25.1947 43.2871 23.5803 42.3739 21.7177ZM47.2183 16.1245C44.1934 16.1245 41.7462 13.6669 41.7462 10.6415C41.7462 7.61618 44.1934 5.15856 47.2183 5.15856C50.243 5.15856 52.6901 7.61621 52.6901 10.6415C52.6901 13.6668 50.243 16.1245 47.2183 16.1245ZM44.09 10.6415C44.09 12.3781 45.4934 13.7807 47.2183 13.7807C48.9429 13.7807 50.3464 12.3781 50.3464 10.6415C50.3464 8.90498 48.9429 7.50231 47.2183 7.50231C45.4934 7.50231 44.09 8.905 44.09 10.6415ZM18.7204 66.5447C16.8808 62.7926 15.5157 58.3096 15.5157 55.1965C15.5157 50.7669 19.1167 47.1707 23.5652 47.1707C24.7668 47.1707 25.9043 47.4349 26.9277 47.9049C27.5158 48.175 28.2116 47.9172 28.4817 47.329C28.7518 46.7409 28.494 46.0451 27.9059 45.775C26.5846 45.1682 25.1142 44.827 23.5652 44.827C17.828 44.827 13.1719 49.4668 13.1719 55.1965C13.1719 58.818 14.7024 63.6736 16.616 67.5765C17.5793 69.5414 18.6728 71.3337 19.7787 72.6548C20.3308 73.3144 20.9133 73.8895 21.5133 74.3084C22.1025 74.7197 22.8028 75.0457 23.5652 75.0457C24.3018 75.0457 24.9828 74.7321 25.5559 74.3408C26.1416 73.9409 26.716 73.3908 27.2645 72.7564C28.3631 71.4856 29.464 69.7523 30.4409 67.8232C32.3836 63.9868 33.9585 59.1292 33.9585 55.1965C33.9585 53.5401 33.5666 51.9732 32.8732 50.5832C32.5843 50.0041 31.8806 49.7688 31.3015 50.0577C30.7223 50.3466 30.487 51.0503 30.7759 51.6295C31.3119 52.7039 31.6147 53.9135 31.6147 55.1965C31.6147 58.62 30.2049 63.1012 28.3499 66.7644C27.428 68.5851 26.4268 70.1417 25.4915 71.2236C25.023 71.7654 24.5975 72.1573 24.2344 72.4052C23.8585 72.6618 23.6416 72.702 23.5652 72.702C23.4701 72.702 23.239 72.6547 22.8549 72.3866C22.4817 72.1261 22.049 71.7156 21.5759 71.1504C20.6311 70.0217 19.6336 68.4074 18.7204 66.5447ZM23.5648 60.9516C20.5399 60.9516 18.0929 58.494 18.0929 55.4687C18.0929 52.4434 20.5399 49.9857 23.5648 49.9857C26.5897 49.9857 29.0367 52.4434 29.0367 55.4687C29.0367 58.494 26.5897 60.9516 23.5648 60.9516ZM20.4367 55.4687C20.4367 57.2053 21.84 58.6079 23.5648 58.6079C25.2896 58.6079 26.6929 57.2053 26.6929 55.4687C26.6929 53.7321 25.2896 52.3295 23.5648 52.3295C21.84 52.3295 20.4367 53.7321 20.4367 55.4687Z" fill="#1C1C1C"/>
</g>
</svg>
