<svg width="78" height="78" viewBox="0 0 78 78" fill="none" xmlns="http://www.w3.org/2000/svg">
<path d="M31.6698 47.3577C31.6747 47.358 31.6793 47.3594 31.684 47.3595C31.6937 47.3598 31.7035 47.3635 31.7132 47.3635C31.7135 47.3635 31.714 47.3633 31.7143 47.3633C31.7146 47.3633 31.7151 47.3635 31.7154 47.3635C31.7216 47.3635 31.7277 47.361 31.7339 47.361C31.7595 47.3612 31.7842 47.3648 31.8098 47.3648H31.8101H31.8103H31.8104C39.5697 47.3648 45.8823 41.0523 45.8823 33.2927C45.8823 25.5331 39.5697 19.2206 31.8104 19.2206C31.7958 19.2206 31.7816 19.2227 31.767 19.2228C31.7495 19.2219 31.7318 19.2245 31.7141 19.2245C31.6802 19.2247 31.6467 19.2263 31.613 19.2297C31.5936 19.2315 31.5741 19.2306 31.5548 19.2335C23.9141 19.3718 17.7383 25.6193 17.7383 33.2927C17.7383 41.0048 23.9757 47.2811 31.6698 47.3577ZM20.8644 38.1037H24.0616C24.8043 40.5284 26.101 42.743 27.8734 44.5776C24.7386 43.4802 22.196 41.1212 20.8644 38.1037ZM43.7741 33.2925C43.7741 34.2232 43.6567 35.1254 43.4547 35.9956H39.8551C40.0027 35.1044 40.0865 34.194 40.0865 33.2665C40.0865 32.3582 40.0045 31.4655 39.8603 30.5903H43.455C43.6568 31.4603 43.7741 32.3622 43.7741 33.2925ZM37.9784 33.3188C37.9784 34.2293 37.8911 35.1243 37.725 35.9957H32.864V30.5904H37.7204C37.89 31.4768 37.9784 32.389 37.9784 33.3188ZM26.2886 38.1037H30.7561V44.3544C28.6909 42.7045 27.1623 40.545 26.2886 38.1037ZM32.864 44.192V38.1036H37.1457C36.3006 40.4618 34.8351 42.5607 32.864 44.192ZM32.864 28.4823V22.3934C34.8309 24.0218 36.2944 26.1182 37.1403 28.4823H32.864ZM30.7561 22.2309V28.4823H26.2828C27.1554 26.0466 28.6862 23.8838 30.7561 22.2309ZM30.7561 30.5903V35.9956H25.708C25.5384 35.1089 25.4501 34.1966 25.4501 33.2665C25.4501 32.3562 25.5374 31.4614 25.7033 30.5903H30.7561ZM23.5685 35.9956H20.1657C19.9637 35.1254 19.8463 34.2232 19.8463 33.2925C19.8463 32.362 19.9636 31.4602 20.1656 30.5903H23.5735C23.426 31.4812 23.3422 32.3914 23.3422 33.3186C23.3422 34.227 23.4244 35.1202 23.5685 35.9956ZM35.4379 44.6909C37.2639 42.837 38.6018 40.5851 39.3612 38.1036H42.756C41.3804 41.2211 38.7162 43.6449 35.4379 44.6909ZM42.7563 28.4823H39.3671C38.6089 26.0061 37.2694 23.7519 35.4392 21.8948C38.7172 22.9409 41.381 25.3649 42.7563 28.4823ZM27.8745 22.0074C26.1059 23.839 24.8108 26.052 24.0671 28.4823H20.8641C22.1957 25.4641 24.7389 23.1046 27.8745 22.0074ZM68.9159 13.8378C68.1936 12.4379 66.9743 11.4052 65.4823 10.9289L32.1322 0.280421C30.641 -0.197177 29.0483 -0.0612865 27.6485 0.661889C26.249 1.38385 25.2159 2.60321 24.7397 4.09496L22.5263 11.0264H14.3058C11.0621 11.0264 8.42322 13.6656 8.42322 16.9094V72.1178C8.42322 75.3615 11.0621 78 14.3058 78H49.3146C52.5583 78 55.1972 75.3615 55.1972 72.1178V62.4816L69.297 18.3216C69.7733 16.8304 69.6381 15.2377 68.9159 13.8378ZM53.089 72.1178C53.089 74.1991 51.3957 75.892 49.3146 75.892H14.3058C12.2245 75.892 10.5314 74.1991 10.5314 72.1178V16.9094C10.5314 14.828 12.2247 13.1346 14.3058 13.1346H49.3146C51.3959 13.1346 53.089 14.8282 53.089 16.9094V72.1178ZM67.2891 17.6807L55.1972 55.5521V16.9094C55.1972 13.6656 52.5583 11.0264 49.3146 11.0264H24.7386L26.7474 4.73602C27.0524 3.78082 27.7157 2.99915 28.615 2.53465C29.514 2.07076 30.535 1.98362 31.4913 2.28831L64.8414 12.937C65.7966 13.2423 66.5786 13.9053 67.0425 14.8049C67.5064 15.7037 67.5941 16.7255 67.2891 17.6807ZM46.0279 55.5136C46.0279 56.0955 45.5561 56.5676 44.9738 56.5676H18.6461C18.0638 56.5676 17.592 56.0955 17.592 55.5136C17.592 54.9316 18.0638 54.4595 18.6461 54.4595H44.974C45.5562 54.4595 46.0279 54.9316 46.0279 55.5136ZM46.0279 62.954C46.0279 63.536 45.5561 64.0081 44.9738 64.0081H18.6461C18.0638 64.0081 17.592 63.536 17.592 62.954C17.592 62.3721 18.0638 61.9 18.6461 61.9H44.974C45.5562 61.9001 46.0279 62.3722 46.0279 62.954ZM40.0565 70.3946C40.0565 70.9766 39.5847 71.4487 39.0024 71.4487H24.6177C24.0354 71.4487 23.5636 70.9766 23.5636 70.3946C23.5636 69.8127 24.0354 69.3406 24.6177 69.3406H39.0024C39.5848 69.3406 40.0565 69.8127 40.0565 70.3946Z" fill="black"/>
</svg>
