<svg width="15" height="16" viewBox="0 0 15 16" fill="none" xmlns="http://www.w3.org/2000/svg">
<path d="M13.2417 11.1361C12.2751 10.3094 11.2942 9.80864 10.3395 10.6341L9.76944 11.133C9.35235 11.4951 8.57685 13.1872 5.57853 9.73808C2.58083 6.29332 4.36472 5.75697 4.78243 5.39795L5.35562 4.89843C6.30532 4.07112 5.94692 3.02963 5.26197 1.95755L4.84862 1.30819C4.16054 0.238608 3.41127 -0.463831 2.45908 0.362237L1.94458 0.811798C1.52374 1.11837 0.34739 2.1149 0.062044 4.00805C-0.281371 6.27958 0.801946 8.88079 3.2839 11.7349C5.76273 14.5902 8.18973 16.0244 10.4887 15.9995C12.3994 15.9789 13.5532 14.9536 13.9141 14.5809L14.4305 14.1307C15.3802 13.3052 14.7902 12.4648 13.823 11.6362L13.2417 11.1361Z" fill="#2C2C2C"/>
</svg>
