<svg width="80" height="80" viewBox="0 0 80 80" fill="none" xmlns="http://www.w3.org/2000/svg">
<path d="M40 48.0125C39.8163 48.0124 39.6349 47.9718 39.4687 47.8937L0.718724 29.6625C0.503978 29.5615 0.322401 29.4015 0.195214 29.2012C0.0680284 29.0009 0.000488281 28.7685 0.000488281 28.5312C0.000488281 28.2939 0.0680284 28.0615 0.195214 27.8612C0.322401 27.6609 0.503978 27.5009 0.718724 27.4L39.4687 9.16245C39.635 9.08441 39.8163 9.04395 40 9.04395C40.1836 9.04395 40.365 9.08441 40.5312 9.16245L79.2812 27.4C79.496 27.5009 79.6775 27.6609 79.8047 27.8612C79.9319 28.0615 79.9995 28.2939 79.9995 28.5312C79.9995 28.7685 79.9319 29.0009 79.8047 29.2012C79.6775 29.4015 79.496 29.5615 79.2812 29.6625L40.5312 47.8937C40.365 47.9718 40.1836 48.0124 40 48.0125ZM4.18747 28.5312L40 45.4062L75.8125 28.5312L40 11.675L4.18747 28.5312Z" fill="#1C1C1C"/>
<path d="M15 50C14.6685 50 14.3505 49.8683 14.1161 49.6339C13.8817 49.3995 13.75 49.0815 13.75 48.75V35.625C13.75 35.2935 13.8817 34.9755 14.1161 34.7411C14.3505 34.5067 14.6685 34.375 15 34.375C15.3315 34.375 15.6495 34.5067 15.8839 34.7411C16.1183 34.9755 16.25 35.2935 16.25 35.625V48.75C16.25 49.0815 16.1183 49.3995 15.8839 49.6339C15.6495 49.8683 15.3315 50 15 50Z" fill="#1C1C1C"/>
<path d="M65 50C64.6685 50 64.3505 49.8683 64.1161 49.6339C63.8817 49.3995 63.75 49.0815 63.75 48.75V35.625C63.75 35.2935 63.8817 34.9755 64.1161 34.7411C64.3505 34.5067 64.6685 34.375 65 34.375C65.3315 34.375 65.6495 34.5067 65.8839 34.7411C66.1183 34.9755 66.25 35.2935 66.25 35.625V48.75C66.25 49.0815 66.1183 49.3995 65.8839 49.6339C65.6495 49.8683 65.3315 50 65 50Z" fill="#1C1C1C"/>
<path d="M40 62.8313C25.8625 62.8313 13.75 55.0875 13.75 48.75C13.75 48.4185 13.8817 48.1005 14.1161 47.8661C14.3505 47.6317 14.6685 47.5 15 47.5C15.3315 47.5 15.6495 47.6317 15.8839 47.8661C16.1183 48.1005 16.25 48.4185 16.25 48.75C16.25 52.7125 26.25 60.3313 40 60.3313C53.75 60.3313 63.75 52.7125 63.75 48.75C63.75 48.4185 63.8817 48.1005 64.1161 47.8661C64.3505 47.6317 64.6685 47.5 65 47.5C65.3315 47.5 65.6495 47.6317 65.8839 47.8661C66.1183 48.1005 66.25 48.4185 66.25 48.75C66.25 55.0875 54.1375 62.8313 40 62.8313Z" fill="#1C1C1C"/>
<path d="M58.75 63.1251C58.4184 63.1251 58.1005 62.9934 57.8661 62.7589C57.6316 62.5245 57.5 62.2066 57.5 61.8751V38.2751L39.4437 29.2438C39.2916 29.1739 39.1551 29.0742 39.0422 28.9506C38.9294 28.827 38.8425 28.6819 38.7868 28.5241C38.731 28.3662 38.7076 28.1988 38.7178 28.0317C38.728 27.8646 38.7716 27.7013 38.8462 27.5514C38.9207 27.4015 39.0246 27.2681 39.1516 27.1591C39.2787 27.0501 39.4263 26.9678 39.5858 26.917C39.7453 26.8661 39.9134 26.8478 40.0801 26.8632C40.2468 26.8785 40.4087 26.9272 40.5562 27.0063L59.3062 36.3813C59.5145 36.4848 59.6897 36.6443 59.8123 36.842C59.9348 37.0396 59.9998 37.2675 60 37.5001V61.8751C60 62.2066 59.8683 62.5245 59.6338 62.7589C59.3994 62.9934 59.0815 63.1251 58.75 63.1251Z" fill="#1C1C1C"/>
<path d="M58.75 68.75C58.0083 68.75 57.2833 68.5301 56.6666 68.118C56.0499 67.706 55.5693 67.1203 55.2855 66.4351C55.0016 65.7498 54.9274 64.9958 55.0721 64.2684C55.2168 63.541 55.5739 62.8728 56.0984 62.3484C56.6228 61.8239 57.291 61.4668 58.0184 61.3221C58.7458 61.1774 59.4998 61.2516 60.1851 61.5355C60.8703 61.8193 61.456 62.2999 61.868 62.9166C62.2801 63.5333 62.5 64.2583 62.5 65C62.5 65.9946 62.1049 66.9484 61.4016 67.6516C60.6984 68.3549 59.7446 68.75 58.75 68.75ZM58.75 63.75C58.5028 63.75 58.2611 63.8233 58.0555 63.9607C57.85 64.098 57.6898 64.2932 57.5952 64.5216C57.5005 64.7501 57.4758 65.0014 57.524 65.2439C57.5723 65.4863 57.6913 65.7091 57.8661 65.8839C58.0409 66.0587 58.2637 66.1778 58.5061 66.226C58.7486 66.2742 58.9999 66.2495 59.2284 66.1548C59.4568 66.0602 59.652 65.9 59.7893 65.6945C59.9267 65.4889 60 65.2472 60 65C60 64.6685 59.8683 64.3505 59.6339 64.1161C59.3995 63.8817 59.0815 63.75 58.75 63.75Z" fill="#1C1C1C"/>
<path d="M60.625 76.25H56.875C56.7015 76.2506 56.5298 76.2151 56.3708 76.1457C56.2118 76.0764 56.0689 75.9747 55.9513 75.8471C55.8338 75.7195 55.744 75.5689 55.6878 75.4047C55.6317 75.2406 55.6103 75.0666 55.625 74.8937L56.25 67.3937C56.2624 67.0622 56.4061 66.7492 56.6493 66.5235C56.8925 66.2979 57.2154 66.1781 57.5469 66.1906C57.8784 66.203 58.1914 66.3466 58.417 66.5898C58.6427 66.8331 58.7624 67.1559 58.75 67.4875C58.7376 67.1559 58.8573 66.8331 59.083 66.5898C59.3086 66.3466 59.6216 66.203 59.9531 66.1906C60.2847 66.1781 60.6075 66.2979 60.8507 66.5235C61.094 66.7492 61.2376 67.0622 61.25 67.3937L61.875 74.8937C61.8898 75.0666 61.8684 75.2406 61.8122 75.4047C61.756 75.5689 61.6663 75.7195 61.5487 75.8471C61.4311 75.9747 61.2883 76.0764 61.1292 76.1457C60.9702 76.2151 60.7985 76.2506 60.625 76.25ZM58.2313 73.75H59.2688L58.75 67.6062C58.7469 67.575 58.7469 67.5436 58.75 67.5125C58.7531 67.5436 58.7531 67.575 58.75 67.6062L58.2313 73.75Z" fill="#1C1C1C"/>
</svg>
