<svg width="60" height="60" viewBox="0 0 60 60" fill="none" xmlns="http://www.w3.org/2000/svg">
<path d="M53.454 15H33.7925L30.9375 11.828V9.375H38.4375V2.8125H29.0625V11.828L26.2075 15H6.546L1.875 27.0117V57.1875H58.125V27.0117L53.454 15ZM36.5625 7.5H30.9375V4.6875H36.5625V7.5ZM52.1713 16.875L55.8171 26.25H39.375V21.2027L35.48 16.875H52.1713ZM7.82869 16.875H24.52L20.625 21.2027V26.25H4.18294L7.82869 16.875ZM3.75 28.125H20.625V51.5625H3.75V28.125ZM20.625 55.3125H3.75V53.4375H20.625V55.3125ZM27.1875 55.3125V41.25H32.8125V55.3125H27.1875ZM37.5 55.3125H34.6875V39.375H25.3125V55.3125H22.5V21.9223L30 13.5887L37.5 21.9223V55.3125ZM39.375 53.4375H56.25V55.3125H39.375V53.4375ZM39.375 51.5625V28.125H56.25V51.5625H39.375Z" fill="#E91515"/>
<path d="M41.25 39.375H46.875V31.875H41.25V39.375ZM43.125 33.75H45V37.5H43.125V33.75Z" fill="#E91515"/>
<path d="M48.75 31.875V39.375H54.375V31.875H48.75ZM52.5 37.5H50.625V33.75H52.5V37.5Z" fill="#E91515"/>
<path d="M41.25 48.75H46.875V41.25H41.25V48.75ZM43.125 43.125H45V46.875H43.125V43.125Z" fill="#E91515"/>
<path d="M48.75 48.75H54.375V41.25H48.75V48.75ZM50.625 43.125H52.5V46.875H50.625V43.125Z" fill="#E91515"/>
<path d="M5.625 39.375H11.25V31.875H5.625V39.375ZM7.5 33.75H9.375V37.5H7.5V33.75Z" fill="#E91515"/>
<path d="M13.125 31.875V39.375H18.75V31.875H13.125ZM16.875 37.5H15V33.75H16.875V37.5Z" fill="#E91515"/>
<path d="M5.625 48.75H11.25V41.25H5.625V48.75ZM7.5 43.125H9.375V46.875H7.5V43.125Z" fill="#E91515"/>
<path d="M13.125 48.75H18.75V41.25H13.125V48.75ZM15 43.125H16.875V46.875H15V43.125Z" fill="#E91515"/>
<path d="M30 21.5625C28.8875 21.5625 27.7999 21.8924 26.8749 22.5105C25.9499 23.1286 25.2289 24.0071 24.8032 25.0349C24.3774 26.0627 24.266 27.1937 24.4831 28.2849C24.7001 29.376 25.2359 30.3783 26.0225 31.165C26.8092 31.9516 27.8115 32.4874 28.9026 32.7044C29.9938 32.9215 31.1248 32.8101 32.1526 32.3843C33.1804 31.9586 34.0589 31.2376 34.677 30.3126C35.2951 29.3876 35.625 28.3 35.625 27.1875C35.6234 25.6962 35.0302 24.2664 33.9757 23.2118C32.9211 22.1573 31.4913 21.5641 30 21.5625ZM30 30.9375C29.2583 30.9375 28.5333 30.7176 27.9166 30.3055C27.2999 29.8935 26.8193 29.3078 26.5355 28.6226C26.2516 27.9373 26.1774 27.1833 26.3221 26.4559C26.4668 25.7285 26.8239 25.0603 27.3484 24.5359C27.8728 24.0114 28.541 23.6542 29.2684 23.5096C29.9958 23.3649 30.7498 23.4391 31.4351 23.723C32.1203 24.0068 32.706 24.4874 33.118 25.1041C33.5301 25.7208 33.75 26.4458 33.75 27.1875C33.7489 28.1817 33.3534 29.1349 32.6504 29.8379C31.9474 30.5409 30.9942 30.9364 30 30.9375Z" fill="#E91515"/>
<path d="M30.9375 24.375H29.0625V28.125H32.8125V26.25H30.9375V24.375Z" fill="#E91515"/>
</svg>
