<svg width="24" height="24" viewBox="0 0 24 24" fill="none" xmlns="http://www.w3.org/2000/svg">
<g clip-path="url(#clip0_1_2458)">
<path d="M23.811 21.501L22.4379 20.1282L23.1427 19.6626C23.2449 19.5949 23.3258 19.4996 23.3759 19.3877C23.4261 19.2758 23.4434 19.152 23.4258 19.0306C23.4083 18.9093 23.3566 18.7955 23.2769 18.7023C23.1971 18.6092 23.0926 18.5407 22.9754 18.5047L17.8784 16.9471C17.7662 16.9129 17.6468 16.9098 17.533 16.9382C17.4192 16.9666 17.3152 17.0254 17.2323 17.1084C17.1493 17.1913 17.0905 17.2953 17.0621 17.4091C17.0336 17.5229 17.0367 17.6423 17.0709 17.7545L18.6286 22.8512C18.6645 22.9684 18.733 23.0731 18.8261 23.1529C18.9192 23.2327 19.0331 23.2844 19.1544 23.302C19.2758 23.3195 19.3997 23.3022 19.5116 23.252C19.6235 23.2018 19.7188 23.1208 19.7864 23.0185L20.2521 22.3138L21.6252 23.6869C21.7465 23.8081 21.9109 23.8762 22.0824 23.8762C22.2539 23.8762 22.4184 23.8081 22.5397 23.6869L23.8112 22.4154C23.9321 22.294 24 22.1296 24 21.9582C24 21.7868 23.932 21.6224 23.811 21.501ZM22.0824 22.4901L20.6262 21.0338C20.5584 20.9661 20.4763 20.9142 20.386 20.8821C20.2957 20.8499 20.1993 20.8382 20.1039 20.8479C20.0085 20.8575 19.9165 20.8882 19.8344 20.9378C19.7523 20.9874 19.6823 21.0546 19.6294 21.1346L19.4226 21.4476L18.4768 18.3528L21.5719 19.2985L21.2585 19.5055C21.1786 19.5584 21.1115 19.6285 21.0619 19.7105C21.0124 19.7926 20.9817 19.8846 20.9721 19.98C20.9625 20.0754 20.9742 20.1717 21.0064 20.262C21.0386 20.3523 21.0904 20.4343 21.1582 20.5021L22.6144 21.9583L22.0824 22.4901Z" fill="#E91515"/>
<path d="M15.7377 20.2614C13.8523 21.2228 11.7106 21.5615 9.62051 21.2287C7.53046 20.8958 5.59982 19.9087 4.10628 18.4093C0.196904 14.4999 0.196904 8.13923 4.10628 4.22999C8.01565 0.320758 14.3763 0.320618 18.2855 4.22999C19.7551 5.70106 20.7315 7.59217 21.08 9.64208C21.4285 11.692 21.1318 13.7995 20.2309 15.6735C20.1674 15.8127 20.1609 15.9712 20.213 16.1151C20.265 16.2589 20.3712 16.3767 20.509 16.4431C20.6468 16.5095 20.8052 16.5193 20.9501 16.4703C21.095 16.4213 21.215 16.3176 21.2843 16.1812C22.3079 14.0578 22.6353 11.6656 22.2198 9.34534C21.8044 7.02505 20.6674 4.89503 18.9707 3.25871C17.274 1.62239 15.1042 0.563232 12.7704 0.232126C10.4365 -0.0989801 8.05776 0.314851 5.97288 1.41467C3.888 2.51448 2.20336 4.24418 1.15895 6.35737C0.114542 8.47055 -0.236363 10.8594 0.156221 13.1837C0.548806 15.508 1.66486 17.6491 3.34539 19.302C5.02592 20.9549 7.18521 22.0353 9.51565 22.3894C10.0778 22.4745 10.6455 22.5173 11.214 22.5175C12.9707 22.5179 14.7026 22.102 16.2676 21.3041C16.3372 21.2699 16.3992 21.2223 16.4502 21.164C16.5012 21.1057 16.5401 21.0378 16.5646 20.9643C16.5892 20.8908 16.5989 20.8132 16.5931 20.7359C16.5874 20.6587 16.5664 20.5833 16.5313 20.5142C16.4962 20.4452 16.4478 20.3838 16.3887 20.3336C16.3297 20.2834 16.2613 20.2454 16.1875 20.2219C16.1137 20.1984 16.0359 20.1898 15.9588 20.1965C15.8816 20.2033 15.8065 20.2254 15.7379 20.2614H15.7377Z" fill="#E91515"/>
<path d="M13.984 14.7137C14.1003 14.7138 14.2139 14.6791 14.3104 14.6143C14.4069 14.5494 14.4819 14.4573 14.5257 14.3496C14.5696 14.242 14.5804 14.1237 14.5567 14.0099C14.5331 13.896 14.476 13.7918 14.3929 13.7106L11.7562 11.1329V8.55576C11.7562 8.40066 11.6946 8.25191 11.5849 8.14224C11.4753 8.03256 11.3265 7.97095 11.1714 7.97095C11.0163 7.97095 10.8676 8.03256 10.7579 8.14224C10.6482 8.25191 10.5866 8.40066 10.5866 8.55576V11.3791C10.5866 11.5254 10.6416 11.6663 10.7407 11.7738C10.7437 11.7773 10.7472 11.7809 10.7505 11.7846C10.7539 11.7882 10.7568 11.7914 10.7599 11.7946C10.7608 11.7955 10.7615 11.7964 10.7624 11.7974L13.5752 14.5471C13.6843 14.6541 13.8312 14.7139 13.984 14.7137Z" fill="#E91515"/>
<path d="M11.1714 3.19092C11.0946 3.19091 11.0185 3.20603 10.9476 3.23542C10.8766 3.26481 10.8121 3.30789 10.7578 3.36219C10.7035 3.4165 10.6604 3.48097 10.6311 3.55193C10.6017 3.62288 10.5865 3.69893 10.5865 3.77573V3.82167V3.82532C10.5865 3.82532 10.5865 3.82771 10.5865 3.82893V5.00925C10.5865 5.16435 10.6482 5.3131 10.7578 5.42277C10.8675 5.53244 11.0163 5.59406 11.1714 5.59406C11.3265 5.59406 11.4752 5.53244 11.5849 5.42277C11.6946 5.3131 11.7562 5.16435 11.7562 5.00925V3.83011C11.7562 3.82851 11.7562 3.82692 11.7562 3.82542C11.7562 3.82392 11.7562 3.82218 11.7562 3.82073V3.77597C11.7562 3.69915 11.7411 3.62307 11.7117 3.55209C11.6823 3.48112 11.6393 3.41662 11.585 3.36229C11.5307 3.30796 11.4662 3.26486 11.3952 3.23546C11.3242 3.20605 11.2482 3.19092 11.1714 3.19092Z" fill="#E91515"/>
<path d="M11.1714 19.4413C11.2482 19.4413 11.3242 19.4262 11.3952 19.3968C11.4661 19.3674 11.5306 19.3243 11.5849 19.27C11.6392 19.2157 11.6823 19.1512 11.7117 19.0803C11.7411 19.0093 11.7562 18.9333 11.7562 18.8565V17.6229C11.7562 17.4678 11.6946 17.319 11.5849 17.2094C11.4753 17.0997 11.3265 17.0381 11.1714 17.0381C11.0163 17.0381 10.8676 17.0997 10.7579 17.2094C10.6482 17.319 10.5866 17.4678 10.5866 17.6229V18.8565C10.5866 18.9333 10.6017 19.0093 10.6311 19.0803C10.6605 19.1512 10.7036 19.2157 10.7579 19.27C10.8122 19.3243 10.8766 19.3674 10.9476 19.3968C11.0185 19.4261 11.0946 19.4413 11.1714 19.4413Z" fill="#E91515"/>
<path d="M17.4783 11.9008H18.7119C18.867 11.9008 19.0157 11.8392 19.1254 11.7295C19.2351 11.6199 19.2967 11.4711 19.2967 11.316C19.2967 11.1609 19.2351 11.0122 19.1254 10.9025C19.0157 10.7928 18.867 10.7312 18.7119 10.7312H17.4783C17.3232 10.7312 17.1745 10.7928 17.0648 10.9025C16.9551 11.0122 16.8935 11.1609 16.8935 11.316C16.8935 11.4711 16.9551 11.6199 17.0648 11.7295C17.1745 11.8392 17.3232 11.9008 17.4783 11.9008Z" fill="#E91515"/>
<path d="M5.44927 11.316C5.44927 11.1609 5.38766 11.0122 5.27798 10.9025C5.16831 10.7928 5.01956 10.7312 4.86446 10.7312H3.63089C3.47579 10.7312 3.32704 10.7928 3.21737 10.9025C3.1077 11.0122 3.04608 11.1609 3.04608 11.316C3.04608 11.4711 3.1077 11.6199 3.21737 11.7295C3.32704 11.8392 3.47579 11.9008 3.63089 11.9008H4.86446C5.01956 11.9008 5.16831 11.8392 5.27798 11.7295C5.38766 11.6199 5.44927 11.4711 5.44927 11.316Z" fill="#E91515"/>
<path d="M7.42606 18.3879C7.74904 18.3879 8.01087 18.1261 8.01087 17.8031C8.01087 17.4801 7.74904 17.2183 7.42606 17.2183C7.10308 17.2183 6.84125 17.4801 6.84125 17.8031C6.84125 18.1261 7.10308 18.3879 7.42606 18.3879Z" fill="#E91515"/>
<path d="M4.68406 15.6462C5.00704 15.6462 5.26887 15.3844 5.26887 15.0614C5.26887 14.7384 5.00704 14.4766 4.68406 14.4766C4.36107 14.4766 4.09924 14.7384 4.09924 15.0614C4.09924 15.3844 4.36107 15.6462 4.68406 15.6462Z" fill="#E91515"/>
<path d="M17.6583 8.15546C17.9813 8.15546 18.2431 7.89364 18.2431 7.57065C18.2431 7.24767 17.9813 6.98584 17.6583 6.98584C17.3353 6.98584 17.0735 7.24767 17.0735 7.57065C17.0735 7.89364 17.3353 8.15546 17.6583 8.15546Z" fill="#E91515"/>
<path d="M14.9167 5.41352C15.2397 5.41352 15.5015 5.15169 15.5015 4.82871C15.5015 4.50573 15.2397 4.2439 14.9167 4.2439C14.5937 4.2439 14.3319 4.50573 14.3319 4.82871C14.3319 5.15169 14.5937 5.41352 14.9167 5.41352Z" fill="#E91515"/>
<path d="M4.68406 8.15546C5.00704 8.15546 5.26887 7.89364 5.26887 7.57065C5.26887 7.24767 5.00704 6.98584 4.68406 6.98584C4.36107 6.98584 4.09924 7.24767 4.09924 7.57065C4.09924 7.89364 4.36107 8.15546 4.68406 8.15546Z" fill="#E91515"/>
<path d="M7.42606 5.41401C7.74904 5.41401 8.01087 5.15218 8.01087 4.8292C8.01087 4.50621 7.74904 4.24438 7.42606 4.24438C7.10308 4.24438 6.84125 4.50621 6.84125 4.8292C6.84125 5.15218 7.10308 5.41401 7.42606 5.41401Z" fill="#E91515"/>
</g>
<defs>
<clipPath id="clip0_1_2458">
<rect width="24" height="24" fill="white"/>
</clipPath>
</defs>
</svg>
