<svg width="24" height="24" viewBox="0 0 24 24" fill="none" xmlns="http://www.w3.org/2000/svg">
<g clip-path="url(#clip0_1_2476)">
<path d="M23.4725 11.4759C23.4712 5.13666 18.331 -0.0012815 11.9916 2.39761e-07C5.65228 0.00128198 0.514343 5.1416 0.515625 11.4809C0.516724 16.4744 3.74579 20.8942 8.50268 22.413C8.54809 22.4273 8.59533 22.4346 8.64276 22.4344C8.73321 22.4343 8.82184 22.4101 8.89966 22.3641C9.00091 22.3043 9.07654 22.209 9.11206 22.0968L12.0108 12.9093C12.8033 12.9053 13.4423 12.2595 13.4381 11.4672C13.4341 10.6747 12.7884 10.0356 11.996 10.0397C11.7828 10.0406 11.5724 10.0897 11.3809 10.1832L7.55145 6.35321C7.36139 6.16974 7.05871 6.17505 6.87524 6.36493C6.69617 6.55041 6.69617 6.84411 6.87524 7.0296L10.7027 10.8614C10.409 11.4609 10.5769 12.1846 11.105 12.5933L8.34302 21.3479C2.88464 19.3372 0.089722 13.2825 2.1004 7.82409C4.11108 2.36572 10.1658 -0.429199 15.6242 1.58148C21.0826 3.59216 23.8775 9.64709 21.8668 15.1053C20.8845 17.772 18.8661 19.9286 16.2702 21.0853L15.9717 19.6796C15.9172 19.4213 15.6632 19.2561 15.4048 19.3108C15.3234 19.3282 15.2477 19.3665 15.1855 19.422L12.3078 21.9911C12.1104 22.1667 12.0928 22.469 12.2686 22.6664C12.3257 22.7305 12.399 22.7781 12.481 22.8043L16.155 23.9769C16.4064 24.0577 16.6758 23.9194 16.7565 23.6678C16.7822 23.5884 16.7864 23.5038 16.7692 23.4221L16.4758 22.0428C20.7241 20.2518 23.4824 16.0862 23.4725 11.4759ZM11.9941 10.9977C12.2582 10.9977 12.4724 11.2119 12.4724 11.4759C12.4724 11.7402 12.2582 11.9542 11.9941 11.9542C11.7299 11.9542 11.5159 11.7402 11.5159 11.4759C11.5159 11.2119 11.7299 10.9977 11.9941 10.9977ZM13.5694 22.1457L15.2075 20.6845L15.6595 22.8148L13.5694 22.1457Z" fill="#E91515"/>
<path d="M11.5159 2.38867V3.34521C11.5159 3.60944 11.7299 3.82349 11.9941 3.82349C12.2582 3.82349 12.4724 3.60944 12.4724 3.34521V2.38867C12.4724 2.12463 12.2582 1.9104 11.9941 1.9104C11.7299 1.9104 11.5159 2.12463 11.5159 2.38867Z" fill="#E91515"/>
<path d="M2.90698 10.9976C2.64276 10.9976 2.42871 11.2118 2.42871 11.4758C2.42871 11.7401 2.64276 11.9541 2.90698 11.9541H3.86352C4.12775 11.9541 4.3418 11.7401 4.3418 11.4758C4.3418 11.2118 4.12775 10.9976 3.86352 10.9976H2.90698Z" fill="#E91515"/>
<path d="M21.0811 11.9541C21.3453 11.9541 21.5593 11.7401 21.5593 11.4758C21.5593 11.2118 21.3453 10.9976 21.0811 10.9976H20.1245C19.8605 10.9976 19.6462 11.2118 19.6462 11.4758C19.6462 11.7401 19.8605 11.9541 20.1245 11.9541H21.0811Z" fill="#E91515"/>
</g>
<defs>
<clipPath id="clip0_1_2476">
<rect width="24" height="24" fill="white"/>
</clipPath>
</defs>
</svg>
