<svg width="60" height="60" viewBox="0 0 60 60" fill="none" xmlns="http://www.w3.org/2000/svg">
<path d="M56.1531 54.0891H53.2901H28.7418H25.8789" stroke="black" stroke-width="2" stroke-miterlimit="10" stroke-linecap="round" stroke-linejoin="round"/>
<path d="M25.8789 45.1816V40.4601H56.1531V45.1816" stroke="black" stroke-width="2" stroke-miterlimit="10" stroke-linecap="round" stroke-linejoin="round"/>
<path d="M53.2901 49.4766H48.5393" stroke="black" stroke-width="2" stroke-miterlimit="10" stroke-linecap="round" stroke-linejoin="round"/>
<path d="M25.8789 54.0891H28.7418H33.5195H48.5395" stroke="black" stroke-width="2" stroke-miterlimit="10" stroke-linecap="round" stroke-linejoin="round"/>
<path d="M33.5194 49.4766H28.7417" stroke="black" stroke-width="2" stroke-miterlimit="10" stroke-linecap="round" stroke-linejoin="round"/>
<path d="M25.8789 45.1816V13.7929H30.741" stroke="black" stroke-width="2" stroke-miterlimit="10" stroke-linecap="round" stroke-linejoin="round"/>
<path d="M25.8789 54.0891H28.7418H53.2902H56.1531" stroke="black" stroke-width="2" stroke-miterlimit="10" stroke-linecap="round" stroke-linejoin="round"/>
<path d="M56.1531 17.9258V45.1816" stroke="black" stroke-width="2" stroke-miterlimit="10" stroke-linecap="round" stroke-linejoin="round"/>
<path d="M51.5254 13.793H56.1531" stroke="black" stroke-width="2" stroke-miterlimit="10" stroke-linecap="round" stroke-linejoin="round"/>
<path d="M48.5391 54.0887H33.5195V40.4606H48.5391V54.0887Z" stroke="black" stroke-width="2" stroke-miterlimit="10" stroke-linecap="round" stroke-linejoin="round"/>
<mask id="mask0_1_2884" style="mask-type:luminance" maskUnits="userSpaceOnUse" x="0" y="0" width="60" height="60">
<path d="M0 3.8147e-06H60V60H0V3.8147e-06Z" fill="white"/>
</mask>
<g mask="url(#mask0_1_2884)">
<path d="M49.2177 18.6452H33.0488C31.7745 18.6452 30.7415 17.6122 30.7415 16.3379V8.21818C30.7415 6.94388 31.7745 5.91088 33.0488 5.91088H49.2177C50.492 5.91088 51.525 6.94388 51.525 8.21818V16.3379C51.525 17.6122 50.492 18.6452 49.2177 18.6452Z" stroke="black" stroke-width="2" stroke-miterlimit="10" stroke-linecap="round" stroke-linejoin="round"/>
<path d="M25.8787 27.1125V45.1816" stroke="black" stroke-width="2" stroke-miterlimit="10" stroke-linecap="round" stroke-linejoin="round"/>
<path d="M25.879 54.0889H23.0161H2.53643C1.62119 54.0889 0.879395 53.3471 0.879395 52.4318V48.3818V35.5486C0.879395 34.5877 1.52275 33.7463 2.44971 33.4932L21.7561 28.2351" stroke="black" stroke-width="2" stroke-miterlimit="10" stroke-linecap="round" stroke-linejoin="round"/>
<path d="M25.879 13.7934H22.9106" stroke="black" stroke-width="2" stroke-miterlimit="10" stroke-linecap="round" stroke-linejoin="round"/>
<path d="M59.1209 13.7934H56.1526" stroke="black" stroke-width="2" stroke-miterlimit="10" stroke-linecap="round" stroke-linejoin="round"/>
<path d="M56.1531 33.4652H25.8789V27.1125H56.1531V33.4652Z" stroke="black" stroke-width="2" stroke-miterlimit="10" stroke-linecap="round" stroke-linejoin="round"/>
<path d="M48.5391 33.4652H33.5195V27.1125H48.5391V33.4652Z" stroke="black" stroke-width="2" stroke-miterlimit="10" stroke-linecap="round" stroke-linejoin="round"/>
<path d="M41.0159 40.6004V54.0887" stroke="black" stroke-width="2" stroke-miterlimit="10" stroke-linecap="round" stroke-linejoin="round"/>
<path d="M43.2984 46.1595H41.1331" stroke="black" stroke-width="2" stroke-miterlimit="10" stroke-linecap="round" stroke-linejoin="round"/>
<path d="M36.8383 15.4604H35.5611C34.9167 15.4604 34.3943 14.938 34.3943 14.2934V10.2039C34.3943 9.55953 34.9167 9.03699 35.5611 9.03699H36.8383C37.4828 9.03699 38.0052 9.55953 38.0052 10.2039V14.2934C38.0052 14.938 37.4828 15.4604 36.8383 15.4604Z" stroke="black" stroke-width="2" stroke-miterlimit="10" stroke-linecap="round" stroke-linejoin="round"/>
<path d="M46.7863 15.4604H45.5091C44.8647 15.4604 44.3423 14.938 44.3423 14.2934V10.2039C44.3423 9.55953 44.8647 9.03699 45.5091 9.03699H46.7863C47.4308 9.03699 47.9532 9.55953 47.9532 10.2039V14.2934C47.9532 14.938 47.4308 15.4604 46.7863 15.4604Z" stroke="black" stroke-width="2" stroke-miterlimit="10" stroke-linecap="round" stroke-linejoin="round"/>
<path d="M38.0051 12.2487H44.3422" stroke="black" stroke-width="2" stroke-miterlimit="10" stroke-linecap="round" stroke-linejoin="round"/>
<path d="M25.8788 40.6008H17.2795H9.05767H0.87915" stroke="black" stroke-width="2" stroke-miterlimit="10" stroke-linecap="round" stroke-linejoin="round"/>
<path d="M0.87915 48.382H9.05767H17.2795H23.0159" stroke="black" stroke-width="2" stroke-miterlimit="10" stroke-linecap="round" stroke-linejoin="round"/>
<path d="M9.05762 31.6934V40.6008V48.3821V54.0891" stroke="black" stroke-width="2" stroke-miterlimit="10" stroke-linecap="round" stroke-linejoin="round"/>
<path d="M17.2795 29.4539V40.6008V48.3821V54.0891" stroke="black" stroke-width="2" stroke-miterlimit="10" stroke-linecap="round" stroke-linejoin="round"/>
<path d="M41.0159 27.1121V33.4652" stroke="black" stroke-width="2" stroke-miterlimit="10" stroke-linecap="round" stroke-linejoin="round"/>
<path d="M56.1529 45.182C57.7337 45.182 59.0153 46.4636 59.0153 48.0443V52.6914C59.0153 53.4633 58.3895 54.0891 57.6176 54.0891H53.2905V48.0443C53.2905 46.4636 54.5721 45.182 56.1529 45.182Z" stroke="black" stroke-width="2" stroke-miterlimit="10" stroke-linecap="round" stroke-linejoin="round"/>
<path d="M25.8787 45.182C27.4595 45.182 28.741 46.4636 28.741 48.0443V54.0891H23.0164V48.0443C23.0164 46.4636 24.2978 45.182 25.8787 45.182Z" stroke="black" stroke-width="2" stroke-miterlimit="10" stroke-linecap="round" stroke-linejoin="round"/>
</g>
</svg>
