<svg width="60" height="60" viewBox="0 0 60 60" fill="none" xmlns="http://www.w3.org/2000/svg">
<g clip-path="url(#clip0_1_3098)">
<path d="M59 15.875C59.5522 15.875 60 15.4273 60 14.875V10.125C60 9.57275 59.5522 9.125 59 9.125H1C0.44775 9.125 0 9.57275 0 10.125V49.875C0 50.4273 0.44775 50.875 1 50.875H59C59.5522 50.875 60 50.4273 60 49.875V20.375C60 19.8228 59.5522 19.375 59 19.375H50.625C50.0728 19.375 49.625 19.8228 49.625 20.375V33.7435C46.9557 33.0298 45.8704 29.8185 47.555 27.6349C47.8925 27.1976 47.8116 26.5698 47.3744 26.2323C46.937 25.8948 46.3091 25.9758 45.9717 26.413C43.2816 29.8986 45.2673 35.0373 49.625 35.788V39.625C49.625 40.1773 50.0728 40.625 50.625 40.625H53C53.5522 40.625 54 40.1773 54 39.625C54 39.0728 53.5522 38.625 53 38.625H51.625V21.375H58V48.875H31V41.3334C31 40.7811 30.5522 40.3334 30 40.3334C29.4478 40.3334 29 40.7811 29 41.3334V48.875H2V40.625H9.375C9.92725 40.625 10.375 40.1773 10.375 39.625C10.375 39.0728 9.92725 38.625 9.375 38.625H2V21.375H8.375V34.875C8.375 35.4273 8.82275 35.875 9.375 35.875C12.6145 35.875 15.25 33.2395 15.25 30C15.25 27.1015 13.1396 24.6883 10.375 24.2119V20.375C10.375 19.8228 9.92725 19.375 9.375 19.375H2V11.125H29V22.3168C25.1976 22.8091 22.25 26.0658 22.25 30C22.25 34.2734 25.7266 37.75 30 37.75C36.3981 37.75 40.0226 30.4005 36.1833 25.3271C35.85 24.8866 35.2229 24.8 34.7825 25.1331C34.3421 25.4664 34.2551 26.0936 34.5885 26.534C37.1609 29.9333 35.2396 34.9141 31 35.6611V11.125H58V14.875C58 15.4273 58.4478 15.875 59 15.875ZM13.25 30C13.25 31.791 12.0285 33.3014 10.375 33.7435V26.2565C12.0285 26.6986 13.25 28.209 13.25 30ZM24.25 30C24.25 27.1706 26.3048 24.8138 29 24.3389V35.6611C26.3048 35.1863 24.25 32.8294 24.25 30Z" fill="black"/>
</g>
<defs>
<clipPath id="clip0_1_3098">
<rect width="60" height="60" fill="white"/>
</clipPath>
</defs>
</svg>
