<svg width="60" height="60" viewBox="0 0 60 60" fill="none" xmlns="http://www.w3.org/2000/svg">
<g clip-path="url(#clip0_1_2997)">
<path d="M22.9767 30.932C23.2849 30.932 23.5708 30.7705 23.7297 30.5063L25.3153 27.8725L27.4165 31.2115C27.5808 31.4727 27.8679 31.6277 28.1788 31.6221C28.4874 31.6156 28.7699 31.4478 28.9232 31.1799L32.3058 25.2695L36.8489 33.5488C37.0006 33.8251 37.2886 33.9991 37.6038 34.0047C37.609 34.0047 37.6143 34.0048 37.6194 34.0048C37.9287 34.0048 38.2158 33.8421 38.3745 33.5757L41.2049 28.8242H48.0301C48.5155 28.8242 48.909 28.4307 48.909 27.9453C48.909 27.4599 48.5155 27.0664 48.0301 27.0664H40.7055C40.3957 27.0664 40.1089 27.2294 39.9504 27.4956L37.6507 31.3559L33.0925 23.049C32.9394 22.7702 32.6479 22.5958 32.3298 22.5929C32.3271 22.5929 32.3246 22.5929 32.3219 22.5929C32.0069 22.5929 31.7158 22.7615 31.5591 23.0352L28.1246 29.0363L26.0426 25.728C25.8816 25.4722 25.6007 25.3173 25.2987 25.3173C25.2959 25.3173 25.293 25.3173 25.29 25.3173C24.9849 25.3202 24.7031 25.4813 24.5458 25.7428L22.48 29.1741H17.4849C16.9995 29.1741 16.606 29.5677 16.606 30.0531C16.606 30.5384 16.9995 30.932 17.4849 30.932H22.9767Z" fill="black"/>
<path d="M49.5817 6.53845C49.0963 6.53845 48.7028 6.93197 48.7028 7.41736V10.01H46.1104C45.625 10.01 45.2314 10.4035 45.2314 10.8889C45.2314 11.3743 45.625 11.7678 46.1104 11.7678H48.7028V14.3606C48.7028 14.846 49.0963 15.2395 49.5817 15.2395C50.0671 15.2395 50.4606 14.846 50.4606 14.3606V11.7678H53.053C53.5384 11.7678 53.9319 11.3743 53.9319 10.8889C53.9319 10.4035 53.5384 10.01 53.053 10.01H50.4606V7.41736C50.4606 6.93197 50.0671 6.53845 49.5817 6.53845Z" fill="black"/>
<path d="M52.6828 36.6515C56.9647 32.0739 58.1919 25.1517 55.8382 19.2173C58.3639 17.3137 60 14.289 60 10.8889C60 5.14382 55.3263 0.46991 49.5816 0.46991C47.2218 0.46991 44.9109 1.27979 43.0746 2.75038C42.6957 3.05378 42.6346 3.6069 42.938 3.98577C43.2414 4.36452 43.7945 4.42581 44.1734 4.12241C45.7212 2.8828 47.5913 2.22772 49.5814 2.22772C54.3568 2.22772 58.2421 6.11319 58.2421 10.8889C58.2421 15.6667 54.357 19.5535 49.5814 19.5535C45.135 19.5535 41.462 16.1858 40.9743 11.8673C40.9733 11.8574 40.9717 11.8473 40.9704 11.8372C40.9363 11.5256 40.9174 11.2094 40.9174 10.8889C40.9174 9.53237 41.2222 8.2351 41.8232 7.03299C42.0402 6.59882 41.8642 6.07089 41.4301 5.85374C40.9956 5.63682 40.468 5.81272 40.2509 6.24678C39.5268 7.6951 39.1596 9.25698 39.1596 10.8888C39.1596 11.0365 39.1635 11.1832 39.1696 11.3294C36.9503 12.1227 34.8787 13.4273 33.1427 15.1346L32.1713 16.0897C32.1666 16.085 32.163 16.0815 32.1584 16.0768L31.2033 15.1358C28.113 12.0889 24.0677 10.3862 20.1033 10.4682C16.8045 10.5362 13.8853 11.8288 11.6623 14.2053C11.3306 14.5604 11.3494 15.1171 11.7045 15.4487C12.0595 15.7792 12.615 15.7616 12.9466 15.4065C14.838 13.3839 17.3248 12.2835 20.1396 12.226C23.6318 12.1546 27.2142 13.6721 29.9693 16.3874L30.9255 17.3296C31.3873 17.7842 31.781 18.0104 32.1736 18.0104C32.5627 18.0104 32.9505 17.7878 33.4041 17.3424L34.3755 16.3874C35.8354 14.9525 37.5572 13.8353 39.4005 13.1187C40.4244 17.7977 44.5999 21.3112 49.5813 21.3112C51.2868 21.3112 52.8977 20.8992 54.32 20.1694C56.2676 25.4078 55.1494 31.4341 51.4052 35.4431L38.7879 48.3586L37.7437 48.5625C37.4906 48.6117 37.2668 48.6562 37.0629 48.6972C35.7387 48.9656 35.4223 49.0289 33.8719 48.7898L26.3543 47.4152C25.3301 47.0613 25.4332 46.2457 25.4906 46.0008C25.5809 45.6199 25.9348 45.0047 26.6953 45.1195C26.7023 45.1207 26.7094 45.1219 26.7164 45.123C27.0551 45.1664 27.4184 45.2133 27.798 45.2613C29.2219 45.4453 30.8344 45.6527 32.2664 45.7992C35.1961 46.0957 36.8531 44.5582 37.1977 42.9012C37.548 41.2125 36.5859 38.9672 33.6445 38.0285C33.6094 38.018 33.573 38.0086 33.5355 38.0015L28.6945 37.1133C26.0672 36.6316 24.0234 37.0031 20.9297 37.5656C20.1117 37.7144 19.1836 37.882 18.15 38.0519L15.8555 38.4293L15.1488 37.7062L12.9398 35.4445C8.81133 31.0183 7.89609 24.0855 10.718 18.5812C10.9395 18.15 10.7684 17.6203 10.3371 17.3988C9.90469 17.1773 9.375 17.3473 9.15352 17.7797C5.99883 23.9344 7.03008 31.6945 11.6625 36.6515C11.6672 36.6562 11.6719 36.6609 11.6754 36.6656L13.7379 38.7773L9.89672 39.4087V39.3084C9.89672 38.6298 9.29801 38.0777 8.56207 38.0777H1.33125C0.597187 38.0777 0 38.6298 0 39.3084V54.7731C0 55.4517 0.597187 56.0038 1.33125 56.0038H8.56219C9.29813 56.0038 9.89684 55.4517 9.89684 54.7731V54.6665L17.8008 56.8172L25.0969 58.8C26.7621 59.3168 28.1039 59.5301 29.3285 59.5301C31.2668 59.5301 32.9133 58.998 35.0883 58.2949C35.2816 58.2328 35.4797 58.1683 35.6836 58.1027L50.0613 53.4926C51.7277 52.9582 52.9137 51.7582 53.2324 50.2828C53.4797 49.139 53.1352 48.0094 52.3102 47.2605C51.6422 46.6547 50.0719 45.7851 47.0449 46.7426L41.8254 47.7633L52.6699 36.6656C52.6746 36.6609 52.6781 36.6562 52.6828 36.6515ZM1.75781 54.246V39.8354H8.13891V40.4393C8.13891 40.4412 8.13867 40.4429 8.13867 40.4448V53.5159C8.13867 53.5169 8.13891 53.5179 8.13891 53.5189V54.246H1.75781ZM47.5312 48.4324C49.1531 47.9121 50.4645 47.959 51.1301 48.5625C51.4887 48.8883 51.6293 49.3805 51.5145 49.9101C51.3293 50.7644 50.5852 51.4781 49.5246 51.818L35.1457 56.4293C34.9406 56.4949 34.7414 56.5594 34.5469 56.6226C31.1074 57.7336 29.3813 58.2926 25.6031 57.1172C25.5938 57.1137 25.5832 57.1113 25.5727 57.1078L9.89672 52.8446V41.1902L18.4348 39.7875C19.4824 39.6152 20.4187 39.4441 21.2449 39.2941C24.2508 38.748 26.066 38.4187 28.377 38.843L33.1617 39.7207C35.0273 40.3336 35.6707 41.6097 35.4762 42.5437C35.2523 43.623 34.0617 44.2148 32.4445 44.0508C31.0359 43.9066 29.4352 43.7004 28.023 43.5187C27.6457 43.4695 27.2836 43.4226 26.9473 43.3805C25.2668 43.132 24.082 44.3074 23.7797 45.6C23.7152 45.8754 23.6895 46.1683 23.7082 46.4637C23.7727 47.5324 24.4113 48.641 25.8691 49.1062C25.9055 49.118 26.3906 49.2082 26.3906 49.2082L33.5684 50.5207C33.5754 50.5219 33.5836 50.523 33.5918 50.5242C35.073 50.7551 35.7141 50.7351 36.6223 50.5746C36.8602 50.5324 37.8305 50.3355 38.0801 50.2875L39.6621 49.9781C39.6621 49.9781 47.4984 48.443 47.5312 48.4324Z" fill="black"/>
</g>
<defs>
<clipPath id="clip0_1_2997">
<rect width="60" height="60" fill="white"/>
</clipPath>
</defs>
</svg>
