<svg width="80" height="80" viewBox="0 0 80 80" fill="none" xmlns="http://www.w3.org/2000/svg">
<g clip-path="url(#clip0_1_3245)">
<mask id="mask0_1_3245" style="mask-type:luminance" maskUnits="userSpaceOnUse" x="0" y="0" width="80" height="80">
<path d="M80 0H0V80H80V0Z" fill="white"/>
</mask>
<g mask="url(#mask0_1_3245)">
<mask id="mask1_1_3245" style="mask-type:luminance" maskUnits="userSpaceOnUse" x="0" y="0" width="80" height="80">
<path d="M0 7.62939e-06H80V80H0V7.62939e-06Z" fill="white"/>
</mask>
<g mask="url(#mask1_1_3245)">
<path d="M58.8679 62.2003C58.93 60.2842 57.3803 58.6931 55.4736 58.6931H55.4667V58.6919C55.5587 58.6919 55.6528 58.6917 55.75 58.6917C57.6009 58.6905 59.1 57.1883 59.0989 55.3378C59.0973 53.4866 57.5956 51.9972 55.745 51.9986H41.8014C41.4128 51.9986 41.1376 51.6189 41.2586 51.2497L42.4806 47.5192C43.5207 44.3445 43.3357 42.1825 43.3357 38.4642C43.3357 36.277 41.5626 34.5039 39.3754 34.5039C37.3886 34.5039 35.7093 35.9761 35.4492 37.9458C35.1612 40.1252 34.9675 44.0005 31.3645 47.4698L28.8217 49.9183C27.405 51.2823 25.515 52.0442 23.5486 52.0442H20.9895V74.027C21.8979 74.0267 22.9426 74.0264 22.944 74.0264C27.7989 74.0233 27.3551 78.8312 33.3928 78.8256H53.9425C55.7911 78.8256 57.2897 77.3272 57.2897 75.4784V75.4783C57.2897 73.6297 55.7911 72.1311 53.9425 72.1311H54.532C56.3512 72.1311 57.9043 70.7166 57.965 68.8984C58.0282 66.9975 56.5062 65.4366 54.6197 65.4366H55.4337C57.2545 65.4366 58.8092 64.0202 58.8679 62.2003Z" stroke="#1C1C1C" stroke-width="2" stroke-miterlimit="10" stroke-linecap="round" stroke-linejoin="round"/>
<path d="M54.2488 72.1325H50.1428" stroke="#1C1C1C" stroke-width="2" stroke-miterlimit="10" stroke-linecap="round" stroke-linejoin="round"/>
<path d="M54.3364 65.438H50.1428" stroke="#1C1C1C" stroke-width="2" stroke-miterlimit="10" stroke-linecap="round" stroke-linejoin="round"/>
<path d="M55.467 58.6931H50.1431" stroke="#1C1C1C" stroke-width="2" stroke-miterlimit="10" stroke-linecap="round" stroke-linejoin="round"/>
<path d="M74.9151 19.3066C75.3782 18.8551 75.1227 18.0683 74.4824 17.9754L69.5379 17.2568C69.2837 17.2199 69.064 17.0602 68.9504 16.8299L66.739 12.3494C66.4527 11.7693 65.6255 11.7693 65.3393 12.3494L63.128 16.8299C63.0143 17.0602 62.7946 17.2199 62.5404 17.2568L57.5958 17.9754C56.9557 18.0683 56.7001 18.8551 57.1633 19.3066L60.7412 22.7941C60.9251 22.9735 61.0091 23.2318 60.9657 23.4851L60.121 28.4096C60.0116 29.0471 60.6808 29.5333 61.2533 29.2323L65.676 26.9073C65.9033 26.7877 66.1749 26.7877 66.4024 26.9073L70.8249 29.2323C71.3974 29.5333 72.0668 29.0471 71.9572 28.4096L71.1127 23.4851C71.0693 23.2318 71.1532 22.9735 71.3372 22.7941L74.9151 19.3066Z" stroke="#1C1C1C" stroke-width="2" stroke-miterlimit="10" stroke-linecap="round" stroke-linejoin="round"/>
<path d="M22.9253 19.3066C23.3886 18.8551 23.133 18.0683 22.4928 17.9754L17.5483 17.2568C17.2941 17.2199 17.0742 17.0602 16.9606 16.8299L14.7494 12.3494C14.4631 11.7693 13.6358 11.7693 13.3495 12.3494L11.1383 16.8299C11.0245 17.0602 10.8048 17.2199 10.5506 17.2568L5.6061 17.9754C4.96594 18.0683 4.71032 18.8551 5.1736 19.3066L8.75157 22.7941C8.93547 22.9735 9.01938 23.2318 8.97594 23.4851L8.13125 28.4096C8.02203 29.0471 8.69125 29.5333 9.26375 29.2323L13.6863 26.9073C13.9136 26.7877 14.1852 26.7877 14.4127 26.9073L18.8352 29.2323C19.4077 29.5333 20.077 29.0471 19.9677 28.4096L19.123 23.4851C19.0795 23.2318 19.1634 22.9735 19.3475 22.7941L22.9253 19.3066Z" stroke="#1C1C1C" stroke-width="2" stroke-miterlimit="10" stroke-linecap="round" stroke-linejoin="round"/>
<path d="M15.6535 76.4327H19.2579C20.2143 76.4327 20.9896 75.6574 20.9896 74.701V51.8008C20.9896 50.8444 20.2143 50.0689 19.2579 50.0689H6.58035C5.62395 50.0689 4.84863 50.8444 4.84863 51.8008V74.701C4.84863 75.6574 5.62395 76.4327 6.58035 76.4327H10.1847" stroke="#1C1C1C" stroke-width="2" stroke-miterlimit="10" stroke-linecap="round" stroke-linejoin="round"/>
<path d="M50.2469 17.1711L54.3958 13.1268C55.1449 12.3968 54.7314 11.1248 53.6964 10.9743L45.7016 9.81262C45.2905 9.75294 44.9352 9.49481 44.7514 9.12231L41.1758 1.87778C40.713 0.939815 39.3755 0.939815 38.9127 1.87778L35.3372 9.12231C35.1533 9.49481 34.7981 9.75294 34.3871 9.81262L26.3922 10.9743C25.3571 11.1248 24.9438 12.3968 25.6928 13.1268L31.4778 18.7661C31.7753 19.0559 31.9111 19.4736 31.8408 19.8829L30.4752 27.8456C30.2983 28.8765 31.3803 29.6626 32.3063 29.1759L39.4571 25.4165C39.8247 25.2232 40.2638 25.2232 40.6314 25.4165L47.7824 29.1759C48.7081 29.6626 49.7902 28.8765 49.6133 27.8456L48.7205 22.6398" stroke="#1C1C1C" stroke-width="2" stroke-miterlimit="10" stroke-linecap="round" stroke-linejoin="round"/>
</g>
</g>
</g>
<defs>
<clipPath id="clip0_1_3245">
<rect width="80" height="80" fill="white"/>
</clipPath>
</defs>
</svg>
