<svg width="60" height="46" viewBox="0 0 60 46" fill="none" xmlns="http://www.w3.org/2000/svg">
<path d="M12.1162 45.3858H1.20011C0.751078 45.3858 0.387207 45.0219 0.387207 44.5729V5.11613C0.387207 4.66709 0.751078 4.30322 1.20011 4.30322H12.1162C12.5653 4.30322 12.9291 4.66709 12.9291 5.11613V44.5729C12.9291 45.0219 12.5653 45.3858 12.1162 45.3858ZM2.01301 43.76H11.3033V5.92903H2.01301V43.76Z" fill="black"/>
<path d="M12.1162 13.4193H1.20011C0.751078 13.4193 0.387207 13.0555 0.387207 12.6064C0.387207 12.1574 0.751078 11.7935 1.20011 11.7935H12.1162C12.5653 11.7935 12.9291 12.1574 12.9291 12.6064C12.9291 13.0555 12.5653 13.4193 12.1162 13.4193Z" fill="black"/>
<path d="M12.1162 18.4284H1.20011C0.751078 18.4284 0.387207 18.0645 0.387207 17.6155C0.387207 17.1664 0.751078 16.8026 1.20011 16.8026H12.1162C12.5653 16.8026 12.9291 17.1664 12.9291 17.6155C12.9291 18.0645 12.5653 18.4284 12.1162 18.4284Z" fill="black"/>
<path d="M8.75227 34.191H4.56388C4.11485 34.191 3.75098 33.8271 3.75098 33.3781C3.75098 32.9291 4.11485 32.5652 4.56388 32.5652H8.75227C9.2013 32.5652 9.56517 32.9291 9.56517 33.3781C9.56517 33.8271 9.2013 34.191 8.75227 34.191Z" fill="black"/>
<path d="M48.6737 45.3858C48.3524 45.3858 48.0466 45.1923 47.9189 44.8749L33.1937 8.26712C33.0272 7.84906 33.2285 7.3768 33.6427 7.21035L43.7692 3.13809C43.9705 3.0568 44.1911 3.06067 44.3924 3.14583C44.5898 3.231 44.7485 3.38971 44.826 3.591L59.5511 40.1987C59.6324 40.4 59.6285 40.6207 59.5434 40.822C59.4582 41.0194 59.2995 41.1781 59.0982 41.2555L48.9718 45.3278C48.8789 45.3665 48.7743 45.3858 48.6737 45.3858ZM35.0053 8.41809L49.1227 43.5162L57.7395 40.0478L43.6221 4.94971L35.0053 8.41809Z" fill="black"/>
<path d="M36.7435 15.7265C36.4222 15.7265 36.1164 15.5329 35.9886 15.2155C35.8222 14.7974 36.0235 14.3252 36.4377 14.1587L46.568 10.0865C46.986 9.92001 47.4583 10.1213 47.6248 10.5355C47.7912 10.9536 47.5899 11.4258 47.1757 11.5923L37.0454 15.6684C36.9447 15.7071 36.8441 15.7265 36.7435 15.7265Z" fill="black"/>
<path d="M38.6131 20.3755C38.2918 20.3755 37.986 20.182 37.8582 19.8645C37.6918 19.4465 37.8931 18.9742 38.3073 18.8078L48.4337 14.7355C48.8518 14.5691 49.3241 14.7703 49.4905 15.1845C49.657 15.6026 49.4557 16.0749 49.0415 16.2413L38.915 20.3136C38.8144 20.3562 38.7137 20.3755 38.6131 20.3755Z" fill="black"/>
<path d="M48.0892 33.5523C47.7679 33.5523 47.4621 33.3588 47.3343 33.0413C47.1679 32.6233 47.3692 32.151 47.7834 31.9846L50.7175 30.8039C51.1356 30.6375 51.6079 30.8388 51.7743 31.253C51.9408 31.671 51.7395 32.1433 51.3253 32.3097L48.3911 33.4904C48.2943 33.533 48.1898 33.5523 48.0892 33.5523Z" fill="black"/>
<path d="M23.0323 10.8065H12.1161C11.6671 10.8065 11.3032 10.4426 11.3032 9.99357C11.3032 9.54454 11.6671 9.18066 12.1161 9.18066H23.0323C23.4813 9.18066 23.8452 9.54454 23.8452 9.99357C23.8452 10.4426 23.4813 10.8065 23.0323 10.8065Z" fill="black"/>
<path d="M19.6685 33.8193H15.4801C15.0311 33.8193 14.6672 33.4555 14.6672 33.0064C14.6672 32.5574 15.0311 32.1935 15.4801 32.1935H19.6685C20.1176 32.1935 20.4814 32.5574 20.4814 33.0064C20.4814 33.4555 20.1176 33.8193 19.6685 33.8193Z" fill="black"/>
<path d="M19.6685 38.5961H15.4801C15.0311 38.5961 14.6672 38.2323 14.6672 37.7832C14.6672 37.3342 15.0311 36.9703 15.4801 36.9703H19.6685C20.1176 36.9703 20.4814 37.3342 20.4814 37.7832C20.4814 38.2323 20.1176 38.5961 19.6685 38.5961Z" fill="black"/>
<path d="M19.6685 27.0258H15.4801C15.0311 27.0258 14.6672 26.6619 14.6672 26.2129V15.1071C14.6672 14.6581 15.0311 14.2942 15.4801 14.2942H19.6685C20.1176 14.2942 20.4814 14.6581 20.4814 15.1071V26.2129C20.4814 26.6619 20.1176 27.0258 19.6685 27.0258ZM16.293 25.4H18.8556V15.92H16.293V25.4Z" fill="black"/>
<path d="M33.9485 45.3858H23.0324C22.5834 45.3858 22.2195 45.0219 22.2195 44.5729V1.4271C22.2195 0.978068 22.5834 0.614197 23.0324 0.614197H33.9485C34.3975 0.614197 34.7614 0.978068 34.7614 1.4271V44.5768C34.7614 45.0219 34.3975 45.3858 33.9485 45.3858ZM23.8453 43.76H33.1356V2.24H23.8453V43.76Z" fill="black"/>
<path d="M33.9485 9.48646H23.0324C22.5834 9.48646 22.2195 9.12259 22.2195 8.67356C22.2195 8.22453 22.5834 7.86066 23.0324 7.86066H33.9485C34.3975 7.86066 34.7614 8.22453 34.7614 8.67356C34.7614 9.12259 34.3975 9.48646 33.9485 9.48646Z" fill="black"/>
<path d="M33.9485 14.4955H23.0324C22.5834 14.4955 22.2195 14.1316 22.2195 13.6826C22.2195 13.2336 22.5834 12.8697 23.0324 12.8697H33.9485C34.3975 12.8697 34.7614 13.2336 34.7614 13.6826C34.7614 14.1316 34.3975 14.4955 33.9485 14.4955Z" fill="black"/>
<path d="M23.0323 45.3858H12.1161C11.6671 45.3858 11.3032 45.0219 11.3032 44.5729C11.3032 44.1239 11.6671 43.76 12.1161 43.76H23.0323C23.4813 43.76 23.8452 44.1239 23.8452 44.5729C23.8452 45.0219 23.4813 45.3858 23.0323 45.3858Z" fill="black"/>
<path d="M30.5845 33.0374H26.3962C25.9471 33.0374 25.5833 32.6736 25.5833 32.2245C25.5833 31.7755 25.9471 31.4116 26.3962 31.4116H30.5845C31.0336 31.4116 31.3974 31.7755 31.3974 32.2245C31.3974 32.6736 31.0336 33.0374 30.5845 33.0374Z" fill="black"/>
<path d="M30.5845 37.8142H26.3962C25.9471 37.8142 25.5833 37.4504 25.5833 37.0013C25.5833 36.5523 25.9471 36.1884 26.3962 36.1884H30.5845C31.0336 36.1884 31.3974 36.5523 31.3974 37.0013C31.3974 37.4504 31.0336 37.8142 30.5845 37.8142Z" fill="black"/>
<path d="M28.4903 26.3678C26.8568 26.3678 25.5291 25.04 25.5291 23.4065C25.5291 21.7729 26.8568 20.4452 28.4903 20.4452C30.1239 20.4452 31.4516 21.7729 31.4516 23.4065C31.4516 25.04 30.1239 26.3678 28.4903 26.3678ZM28.4903 22.071C27.7549 22.071 27.1549 22.671 27.1549 23.4065C27.1549 24.142 27.7549 24.742 28.4903 24.742C29.2258 24.742 29.8258 24.142 29.8258 23.4065C29.8258 22.671 29.2258 22.071 28.4903 22.071Z" fill="black"/>
</svg>
