<svg width="60" height="60" viewBox="0 0 60 60" fill="none" xmlns="http://www.w3.org/2000/svg">
<g clip-path="url(#clip0_1_2967)">
<path d="M11.5003 39.5274L4.38473 43.6342C3.90675 43.9102 3.74281 44.5211 4.01878 45.0002C4.20381 45.3211 4.53977 45.5002 4.88569 45.5002C5.05466 45.5002 5.22668 45.4572 5.38464 45.3663L12.5003 41.2604C12.9782 40.9845 13.1422 40.3724 12.8662 39.8945C12.5903 39.4155 11.9783 39.2515 11.5003 39.5274Z" fill="black"/>
<path d="M14.0003 30.0009C14.0003 29.449 13.5523 29.001 13.0004 29.001L0.99991 29C0.447985 29 0 29.448 0 29.9999C0 30.5529 0.447985 30.9998 0.99991 30.9998L13.0004 31.0008C13.5523 31.001 14.0003 30.553 14.0003 30.0009Z" fill="black"/>
<path d="M17.1362 9.71998C17.3212 10.0409 17.6571 10.22 18.0031 10.22C18.172 10.22 18.345 10.177 18.502 10.0861C18.98 9.81009 19.1439 9.19805 18.868 8.72018L16.3662 4.38646C16.0891 3.90847 15.4772 3.74348 15.0002 4.0205C14.5213 4.29646 14.3583 4.9085 14.6342 5.38649L17.1362 9.71998Z" fill="black"/>
<path d="M4.38567 16.3666L14.5002 22.2084C14.6572 22.2993 14.8291 22.3423 14.9992 22.3423C15.3452 22.3423 15.6812 22.1634 15.8661 21.8423C16.142 21.3643 15.979 20.7524 15.5001 20.4774L5.38558 14.6347C4.90865 14.3577 4.29462 14.5217 4.01971 15.0006C3.74375 15.4787 3.90675 16.0907 4.38567 16.3666Z" fill="black"/>
<path d="M44.1328 21.8424C44.3179 22.1634 44.6538 22.3424 44.9997 22.3424C45.1687 22.3424 45.3407 22.2994 45.4987 22.2085L55.6152 16.3687C56.0941 16.0917 56.2571 15.4807 55.9812 15.0018C55.7052 14.5238 55.0932 14.3599 54.6152 14.6359L44.4987 20.4765C44.0198 20.7525 43.8568 21.3644 44.1328 21.8424Z" fill="black"/>
<path d="M41.499 10.0859C41.657 10.177 41.829 10.2199 41.998 10.2199C42.344 10.2199 42.68 10.0409 42.8649 9.71986L45.3667 5.38613C45.6427 4.90815 45.4787 4.29623 45.0007 4.02015C44.5208 3.74313 43.9108 3.90812 43.6348 4.38611L41.1329 8.71983C40.8571 9.19805 41.02 9.80997 41.499 10.0859Z" fill="black"/>
<path d="M40.315 58.0495C40.288 58.0405 37.5181 57.1035 35.7062 55.2916C33.9103 53.4957 32.9993 51.7148 32.9993 49.9989V31.9998C32.9993 31.7949 33.0413 29.9999 34.4993 29.9999C35.5722 29.9999 35.9961 32.0788 36.0022 32.0777L37.0021 45.0761C37.0441 45.6251 37.5172 46.0411 38.0761 45.9961C38.626 45.9541 39.0391 45.4731 38.9961 44.9221L37.9852 31.8348C37.7482 30.411 36.7473 28.0001 34.4994 28.0001C31.7305 28.0001 30.9995 30.617 30.9995 31.9998V49.9989C30.9995 52.2648 32.1075 54.5207 34.2923 56.7056C36.4342 58.8485 39.5511 59.9034 39.683 59.9474C39.788 59.9824 39.895 59.9984 39.9989 59.9984C40.418 59.9984 40.808 59.7334 40.9479 59.3144C41.1229 58.7906 40.839 58.2246 40.315 58.0495Z" fill="black"/>
<path d="M25.4998 28.0001C23.2519 28.0001 22.2509 30.411 22.003 31.9228L21.0031 44.9221C20.9601 45.4731 21.373 45.954 21.9231 45.9961C22.463 46.0371 22.955 45.6262 22.997 45.0761L23.9859 32.1648C23.9899 32.1428 24.4149 29.9999 25.4998 29.9999C26.9067 29.9999 26.9967 31.6698 26.9997 31.9998V49.9989C26.9997 51.7148 26.0888 53.4957 24.2928 55.2916C22.4909 57.0935 19.7101 58.0405 19.683 58.0504C19.16 58.2265 18.8771 58.7924 19.052 59.3154C19.192 59.7334 19.582 59.9984 20 59.9984C20.105 59.9984 20.211 59.9814 20.316 59.9474C20.448 59.9034 23.5649 58.8485 25.7067 56.7056C27.8916 54.5207 28.9995 52.2647 28.9995 49.9989V31.9998C28.9995 30.617 28.2686 28.0001 25.4998 28.0001Z" fill="black"/>
<path d="M57.5981 58.1986L45.5877 49.1911C44.9547 48.7291 44.2697 47.0942 43.9878 45.8513L40.9789 25.8043C40.761 24.7124 40.555 23.6564 40.356 22.6405C38.5721 13.512 37.4951 8.00127 33.9994 8.00127C31.8964 8.00127 30.9995 8.89818 30.9995 11.0011C30.9995 13.0161 31.9615 25.5444 32.0025 26.0773C32.0444 26.6263 32.5264 27.0393 33.0764 26.9973C33.6264 26.9554 34.0394 26.4744 33.9964 25.9234C33.9865 25.7934 32.9994 12.94 32.9994 11.0011C32.9994 10.0012 33.0184 10.0012 33.9994 10.0012C35.8483 10.0012 37.0842 16.3269 38.3941 23.0245C38.5922 24.0425 38.7991 25.1015 39.0102 26.1484L42.023 46.2193C42.102 46.5674 42.836 49.6601 44.3989 50.7991L56.3983 59.7987C56.5783 59.9337 56.7892 59.9987 56.9972 59.9987C57.3011 59.9987 57.6022 59.8607 57.7981 59.5988C58.129 59.1565 58.04 58.5295 57.5981 58.1986Z" fill="black"/>
<path d="M54.6133 45.3682C54.7712 45.4593 54.9432 45.5022 55.1122 45.5022C55.4583 45.5022 55.7942 45.3232 55.9791 45.0022C56.2551 44.5242 56.0921 43.9123 55.6132 43.6362L48.4985 39.5274C48.0185 39.2515 47.4086 39.4154 47.1325 39.8945C46.8565 40.3724 47.0195 40.9834 47.4985 41.2604L54.6133 45.3682Z" fill="black"/>
<path d="M59.0001 29.0021H46.9987C46.4468 29.0021 45.9988 29.4501 45.9988 30.002C45.9988 30.5539 46.4468 31.0019 46.9987 31.0019H59.0001C59.552 31.0019 60 30.555 60 30.002C60.0001 29.45 59.5521 29.0021 59.0001 29.0021Z" fill="black"/>
<path d="M30.9993 1.00143C30.9993 0.449509 30.5513 0.00152397 29.9994 0.00152397C29.4475 0.00152397 28.9995 0.449509 28.9995 1.00143V4.00128C28.9995 4.55321 29.4475 5.00119 29.9994 5.00119C30.5513 5.00119 30.9993 4.55321 30.9993 4.00128V1.00143Z" fill="black"/>
<path d="M25.9998 8.00104C22.5039 8.00104 21.427 13.5117 19.6431 22.6403C19.4441 23.6563 19.2381 24.7122 19.0112 25.8521L16.0083 45.8741C15.8503 47.1191 15.0743 48.773 14.4003 49.1989L2.40091 58.1985C1.95891 58.5295 1.86996 59.1564 2.20089 59.5984C2.39693 59.8604 2.69785 59.9984 3.00182 59.9984C3.20982 59.9984 3.42074 59.9333 3.60074 59.7983L15.5302 50.8468C16.9112 49.9839 17.816 47.519 17.989 46.147L20.9798 26.1961C21.1998 25.1011 21.4068 24.0421 21.6047 23.0242C22.9147 16.3266 24.1506 10.0009 25.9995 10.0009C26.9804 10.0009 26.9994 10.0009 26.9994 11.0008C26.9994 12.9397 26.0125 25.7931 26.0024 25.923C25.9594 26.474 26.3724 26.9549 26.9224 26.997C27.4664 27.038 27.9534 26.627 27.9964 26.077C28.0374 25.5441 28.9994 13.0157 28.9994 11.0008C28.9996 8.89806 28.1027 8.00104 25.9998 8.00104Z" fill="black"/>
</g>
<defs>
<clipPath id="clip0_1_2967">
<rect width="60" height="60" fill="white"/>
</clipPath>
</defs>
</svg>
