<svg width="80" height="80" viewBox="0 0 80 80" fill="none" xmlns="http://www.w3.org/2000/svg">
<g clip-path="url(#clip0_1_3275)">
<path d="M64.9232 69.6774L61.9361 60.7148C60.8922 57.5858 58.229 55.2761 54.9825 54.6851L46.3593 53.1161V52.4477C47.86 51.5767 49.1658 50.4116 50.2058 49.0322H52.8109C54.9451 49.0322 56.6819 47.2955 56.6819 45.1613V29.6774C56.6819 20.4284 49.1567 12.9032 39.9077 12.9032C30.6587 12.9032 23.1335 20.4284 23.1335 29.6774V38.7096C23.1335 41.1974 24.9025 43.2787 27.2483 43.7638C27.9722 47.4722 30.2896 50.6103 33.4561 52.4477V53.1161L24.8316 54.6851C21.5864 55.2761 18.9219 57.5858 17.8793 60.7148L17.3632 62.2645L12.9683 57.8696C12.4651 57.3664 12.4651 56.5471 12.9683 56.0438L18.0651 50.9484L8.49867 41.3819L2.73867 47.1419C1.03286 48.8477 0.0935059 51.1161 0.0935059 53.529C0.0935059 55.9419 1.03286 58.209 2.73867 59.9148L20.1774 77.3535C21.8832 79.0593 24.1516 80 26.5645 80C28.9774 80 31.2445 79.0593 32.9103 77.3922L39.1954 71.6335L37.2354 69.6774H64.9232ZM54.1012 45.1613C54.1012 45.8735 53.5219 46.4516 52.8109 46.4516H51.7258C52.1 45.5987 52.3838 44.6993 52.5671 43.7638C53.1193 43.649 53.6277 43.4296 54.1012 43.1535V45.1613ZM52.8109 40.9316V36.4877C53.5787 36.9355 54.1012 37.7587 54.1012 38.7096C54.1012 39.6606 53.5787 40.4838 52.8109 40.9316ZM27.0045 40.9316C26.2367 40.4838 25.7141 39.6606 25.7141 38.7096C25.7141 37.7587 26.2367 36.9355 27.0045 36.4877V40.9316ZM27.0045 32.258V33.7316C26.5451 33.8516 26.1141 34.0322 25.7141 34.2658V29.6774C25.7141 21.8516 32.0819 15.4838 39.9077 15.4838C47.7335 15.4838 54.1012 21.8516 54.1012 29.6774V34.2658C53.7012 34.0322 53.2703 33.8503 52.8109 33.7316V32.258H51.5206C47.7051 32.258 44.118 30.7716 41.4187 28.0735L39.9077 26.5626L38.3967 28.0735C35.6974 30.7716 32.1103 32.258 28.2948 32.258H27.0045ZM29.5851 41.2903V34.7896C33.46 34.498 37.0729 32.8993 39.9077 30.2038C42.7425 32.8993 46.3554 34.4993 50.2303 34.7896V41.2903C50.2303 43.1716 49.7167 44.9316 48.8342 46.4516H39.9077V49.0322H46.7129C44.8935 50.6335 42.5154 51.6129 39.9077 51.6129C34.2161 51.6129 29.5851 46.9819 29.5851 41.2903ZM43.7787 53.5987V53.6593L39.9077 57.5303L36.0367 53.6593V53.5987C37.26 53.9832 38.5593 54.1935 39.9077 54.1935C41.2561 54.1935 42.5554 53.9832 43.7787 53.5987ZM20.3258 61.5303C21.0703 59.2955 22.9735 57.6451 25.2922 57.2219L34.3116 55.5832L39.9077 61.1793L45.5025 55.5845L54.5206 57.2232C56.8393 57.6464 58.7425 59.2955 59.4871 61.5316L61.3438 67.0967H34.6548L29.629 62.0709L24.0445 67.1226C23.558 67.6116 22.7077 67.6116 22.22 67.1226L19.4019 64.3045L20.3258 61.5303ZM8.49738 45.0309L14.4148 50.9484L13.0135 52.3496L7.09609 46.4322L8.49738 45.0309ZM31.1232 75.5316C29.9051 76.7471 28.2845 77.4193 26.5619 77.4193C24.8393 77.4193 23.2187 76.7471 21.9993 75.529L4.5606 58.0916C3.34254 56.8735 2.67157 55.2529 2.67157 53.5303C2.67157 51.8064 3.34254 50.1858 4.5606 48.9677L5.27028 48.258L11.1877 54.1755L11.1412 54.2219C9.63286 55.7316 9.63286 58.1871 11.1412 59.6967L20.3941 68.9496C21.1258 69.68 22.0974 70.0838 23.1322 70.0838C24.1671 70.0838 25.1387 69.6813 25.8225 68.9948L25.9193 68.9084L31.8638 74.8529L31.1232 75.5316ZM33.7683 73.1058L27.8367 67.1742L29.5412 65.6335L35.4625 71.5548L33.7683 73.1058Z" fill="#1C1C1C"/>
<path d="M76.0368 0H57.9723C55.8381 0 54.1013 1.73677 54.1013 3.87097V14.1935C54.1013 16.3277 55.8381 18.0645 57.9723 18.0645H61.4187L60.0845 25.8465L72.5362 18.0645H76.0368C78.171 18.0645 79.9078 16.3277 79.9078 14.1935V3.87097C79.9078 1.73677 78.171 0 76.0368 0ZM77.3271 14.1935C77.3271 14.9045 76.7478 15.4839 76.0368 15.4839H71.7955L63.6007 20.6052L64.4794 15.4839H57.9723C57.2613 15.4839 56.682 14.9045 56.682 14.1935V3.87097C56.682 3.16 57.2613 2.58065 57.9723 2.58065H76.0368C76.7478 2.58065 77.3271 3.16 77.3271 3.87097V14.1935Z" fill="#1C1C1C"/>
<path d="M74.7466 5.16129H59.2627V7.74193H74.7466V5.16129Z" fill="#1C1C1C"/>
<path d="M69.5853 10.3226H59.2627V12.9032H69.5853V10.3226Z" fill="#1C1C1C"/>
<path d="M74.7464 10.3226H72.1658V12.9032H74.7464V10.3226Z" fill="#1C1C1C"/>
<path d="M39.9078 3.87097C23.0484 3.87097 8.52583 15.5329 4.75035 31.8L2.30519 27.7239L0.0922852 29.0516L4.62777 36.609L12.1852 32.0736L10.8574 29.8606L7.36067 31.9587C11.0174 17.0774 24.3994 6.45162 39.9078 6.45162C43.2974 6.45162 46.642 6.95484 49.8484 7.94839L50.6123 5.48387C47.1581 4.41291 43.5568 3.87097 39.9078 3.87097Z" fill="#1C1C1C"/>
<path d="M79.2807 28.5703L71.7233 24.0349L67.1891 31.5936L69.402 32.9213L71.6601 29.1574C72.8485 32.6349 73.4562 36.2723 73.4562 40C73.4562 47.6736 70.7981 55.1755 65.9736 61.1226L67.9775 62.7484C73.1749 56.3432 76.0369 48.2632 76.0369 40C76.0369 36.0529 75.4007 32.1987 74.1607 28.5084L77.953 30.7832L79.2807 28.5703Z" fill="#1C1C1C"/>
</g>
<defs>
<clipPath id="clip0_1_3275">
<rect width="80" height="80" fill="white"/>
</clipPath>
</defs>
</svg>
