<svg width="68" height="68" viewBox="0 0 68 68" fill="none" xmlns="http://www.w3.org/2000/svg">
<g clip-path="url(#clip0_1_3027)" filter="url(#filter0_d_1_3027)">
<path d="M34 13.3594C24.8243 13.3594 17.3594 20.8243 17.3594 30C17.3594 39.1757 24.8243 46.6406 34 46.6406C43.1757 46.6406 50.6406 39.1757 50.6406 30C50.6406 20.8243 43.1757 13.3594 34 13.3594ZM34 44.2969C26.1167 44.2969 19.7031 37.8833 19.7031 30C19.7031 22.1167 26.1167 15.7031 34 15.7031C41.8833 15.7031 48.2969 22.1167 48.2969 30C48.2969 37.8833 41.8833 44.2969 34 44.2969Z" fill="black"/>
<path d="M63.3779 0.136875C62.995 -0.066328 62.5312 -0.0418358 62.172 0.200742C56.419 4.08797 52.9844 10.5539 52.9844 17.4971V32.7025C52.9844 34.3334 53.6195 35.8666 54.7727 37.0199L56.9688 39.216V56.4844C56.9688 58.4229 58.5459 60 60.4844 60C62.4229 60 64 58.4229 64 56.4844V1.17188C64 0.738399 63.7607 0.340313 63.3779 0.136875ZM61.6562 56.4844C61.6562 57.1305 61.1305 57.6562 60.4844 57.6562C59.8382 57.6562 59.3125 57.1305 59.3125 56.4844V38.7305C59.3125 38.4197 59.189 38.1217 58.9693 37.9018L56.4299 35.3625C55.7194 34.652 55.3281 33.7073 55.3281 32.7025V17.4971C55.3281 12.1089 57.6579 7.04473 61.6562 3.55043V56.4844Z" fill="black"/>
<path d="M31.3115 20.7062C31.0574 20.111 30.3686 19.8346 29.7735 20.0885C25.797 21.7861 23.2275 25.6766 23.2275 30C23.2275 30.6471 23.7522 31.1719 24.3994 31.1719C25.0466 31.1719 25.5713 30.6471 25.5713 30C25.5713 26.6169 27.582 23.5725 30.6938 22.2442C31.289 21.9901 31.5655 21.3015 31.3115 20.7062Z" fill="black"/>
<path d="M34.0001 19.2275L33.9409 19.2277C33.2937 19.232 32.7725 19.7602 32.7769 20.4074C32.7812 21.0519 33.305 21.5714 33.9486 21.5714C33.9512 21.5714 33.954 21.5714 33.9566 21.5714L34.0001 21.5713C34.6473 21.5713 35.172 21.0466 35.172 20.3994C35.172 19.7522 34.6473 19.2275 34.0001 19.2275Z" fill="black"/>
<path d="M50.2449 14.5874C48.1744 12.4058 45.7339 10.6893 42.9911 9.48552C40.151 8.23911 37.1259 7.60712 34 7.60712C30.4281 7.60712 27.0138 8.42344 23.8518 10.0336C23.2751 10.3273 23.0456 11.0329 23.3392 11.6097C23.633 12.1862 24.3386 12.4157 24.9154 12.1221C27.7448 10.6814 30.8013 9.95087 34 9.95087C39.5542 9.95087 44.7197 12.1704 48.5449 16.2008C48.7753 16.4436 49.0849 16.566 49.3951 16.566C49.6847 16.566 49.9749 16.4592 50.2015 16.2441C50.671 15.7985 50.6903 15.0568 50.2449 14.5874Z" fill="black"/>
<path d="M51.3825 42.2319C50.8747 41.8307 50.1379 41.9168 49.7365 42.4245C45.9053 47.2702 40.1696 50.0491 34 50.0491C30.1387 50.0491 26.3902 48.9495 23.1598 46.8689C22.6158 46.5184 21.8904 46.6756 21.54 47.2195C21.1896 47.7638 21.3467 48.4889 21.8908 48.8393C25.5004 51.1641 29.6877 52.3928 34 52.3928C40.8906 52.3928 47.2964 49.2893 51.5749 43.8779C51.9763 43.3704 51.8903 42.6334 51.3825 42.2319Z" fill="black"/>
<path d="M19.9326 44.288L19.9154 44.2682C19.9091 44.2606 19.9029 44.2528 19.8965 44.2453C19.4796 43.7501 18.7404 43.6868 18.2453 44.1035C17.7502 44.5205 17.6867 45.2596 18.1036 45.7548L18.115 45.7683L18.1156 45.7678C18.128 45.7835 18.1409 45.7992 18.1543 45.8147C18.3861 46.0847 18.7139 46.2232 19.0439 46.2232C19.3142 46.2232 19.5857 46.1303 19.8067 45.9406C20.2977 45.5189 20.3541 44.7791 19.9326 44.288Z" fill="black"/>
<path d="M18.5312 0C17.884 0 17.3594 0.524648 17.3594 1.17188V13.8281H15.2491C15.2492 13.8216 15.25 13.8152 15.25 13.8086V1.17188C15.25 0.524648 14.7254 0 14.0781 0C13.4309 0 12.9062 0.524648 12.9062 1.17188V13.8086C12.9062 13.8151 12.9072 13.8216 12.9072 13.8281H10.7959C10.7961 13.8216 10.7969 13.8152 10.7969 13.8086V1.17188C10.7969 0.524648 10.2722 0 9.625 0C8.97777 0 8.45312 0.524648 8.45312 1.17188V13.8086C8.45312 13.8151 8.45406 13.8216 8.45406 13.8281H6.34375V1.17188C6.34375 0.524648 5.8191 0 5.17188 0C4.52465 0 4 0.524648 4 1.17188V15.4688C4 18.3434 5.74422 20.9378 8.33594 22.0593V56.4844C8.33594 58.4229 9.91305 60 11.8516 60C13.7901 60 15.3672 58.4229 15.3672 56.4844V22.0593C17.9589 20.9378 19.7031 18.3434 19.7031 15.4688V1.17188C19.7031 0.524648 19.1785 0 18.5312 0ZM13.87 20.1117C13.3687 20.2566 13.0234 20.7156 13.0234 21.2375V56.4844C13.0234 57.1305 12.4977 57.6562 11.8516 57.6562C11.2054 57.6562 10.6797 57.1305 10.6797 56.4844V21.2375C10.6797 20.7156 10.3346 20.2566 9.83313 20.1117C8.00699 19.584 6.67129 18.0165 6.39672 16.1719H17.3063C17.0318 18.0165 15.6961 19.584 13.87 20.1117Z" fill="black"/>
</g>
<defs>
<filter id="filter0_d_1_3027" x="0" y="0" width="68" height="68" filterUnits="userSpaceOnUse" color-interpolation-filters="sRGB">
<feFlood flood-opacity="0" result="BackgroundImageFix"/>
<feColorMatrix in="SourceAlpha" type="matrix" values="0 0 0 0 0 0 0 0 0 0 0 0 0 0 0 0 0 0 127 0" result="hardAlpha"/>
<feOffset dy="4"/>
<feGaussianBlur stdDeviation="2"/>
<feComposite in2="hardAlpha" operator="out"/>
<feColorMatrix type="matrix" values="0 0 0 0 0 0 0 0 0 0 0 0 0 0 0 0 0 0 0.25 0"/>
<feBlend mode="normal" in2="BackgroundImageFix" result="effect1_dropShadow_1_3027"/>
<feBlend mode="normal" in="SourceGraphic" in2="effect1_dropShadow_1_3027" result="shape"/>
</filter>
<clipPath id="clip0_1_3027">
<rect width="60" height="60" fill="white" transform="translate(4)"/>
</clipPath>
</defs>
</svg>
