<svg width="60" height="60" viewBox="0 0 60 60" fill="none" xmlns="http://www.w3.org/2000/svg">
<g clip-path="url(#clip0_1_3109)">
<path d="M59.961 33.7212C59.9998 33.547 59.9905 33.3655 59.934 33.1963C59.2483 23.2884 51.0498 15.5788 41.1184 15.5027C37.8038 4.39167 26.1094 -1.92869 14.9984 1.38599C3.88729 4.70066 -2.43294 16.395 0.881606 27.506C2.62682 33.356 6.83185 38.1566 12.4011 40.6571C10.4314 41.7108 8.60155 43.0073 6.95422 44.516L4.10128 47.1309C2.87981 48.2504 2.79706 50.148 3.91654 51.3695C4.04166 51.506 4.17916 51.6307 4.32728 51.7418L7.5432 54.1538C12.1723 57.611 17.7923 59.4842 23.5698 59.4957H26.4318C32.2086 59.4837 37.8279 57.6105 42.4564 54.1538L43.5884 53.3048C52.9975 52.0306 60.0122 43.9913 60 34.4962C60 34.2342 59.971 33.9802 59.961 33.7212ZM54.7171 24.4965C56.5272 26.9619 57.6332 29.873 57.917 32.9183L57.0691 33.3423L52.1592 30.0693L53.7541 24.4965H54.7171ZM47.9513 19.0016C49.8421 19.8484 51.5628 21.0328 53.0292 22.4965H53.0002C52.5537 22.4969 52.1616 22.7931 52.0392 23.2225L50.1652 29.7803L46.9523 31.2623L42.0004 27.9614V24.0175L47.5743 20.1176C47.9289 19.8669 48.0813 19.4161 47.9513 19.0016ZM25.3638 23.7295C25.2565 23.8171 25.1687 23.9261 25.1058 24.0495C25.0942 24.0852 25.0844 24.1216 25.0768 24.1585L22.4149 21.4965L25.5918 18.3196C26.4368 19.0878 27.3428 19.7861 28.3007 20.4076H28.2987C27.1948 21.3973 26.2099 22.512 25.3638 23.7295ZM24.0478 25.9564C22.9139 28.2002 22.2402 30.6482 22.0669 33.1563C21.1418 30.5379 19.7022 28.1311 17.833 26.0774L20.9989 22.9075L24.0478 25.9564ZM26.4088 25.8184L27.2088 26.2184L28.8227 30.2523L24.8008 34.2792L24.0288 33.8932C24.1269 31.0438 24.9458 28.2656 26.4088 25.8184ZM24.5528 36.3862C24.9378 36.5783 25.4027 36.5027 25.7068 36.1982L30.2407 31.6653L34.1736 33.2383L36.0386 39.7651C36.0567 39.8157 36.0796 39.8646 36.1065 39.9111C32.6213 38.3174 28.8332 37.4937 25.0008 37.4962C24.7648 37.4962 24.5298 37.5062 24.2938 37.5122L24.2918 37.5072C24.2118 37.0592 24.1358 36.6072 24.0918 36.1552L24.5528 36.3862ZM34.8836 31.3723L30.7697 29.7263L28.9297 25.1264C28.8387 24.8986 28.6672 24.7121 28.4477 24.6025L27.5477 24.1505C29.2583 21.9241 31.4915 20.1539 34.0496 18.9966C33.9196 19.4109 34.072 19.8619 34.4266 20.1126L40.0005 24.0175V27.9614L34.8836 31.3723ZM41.0004 29.6963L45.7343 32.8593C45.7423 32.8803 45.7403 32.9023 45.7503 32.9233C45.7687 32.9579 45.7895 32.9914 45.8123 33.0233L44.2464 38.4961H37.7545L36.1625 32.9233L41.0004 29.6963ZM45.5533 18.1346V18.1396L45.8133 18.9106L41.0004 22.2755L36.1875 18.9056L36.4475 18.1346C39.4232 17.284 42.5777 17.284 45.5533 18.1346ZM39.0625 15.5967C35.7727 15.9369 32.63 17.1359 29.9497 19.0736C28.9017 18.4466 27.9166 17.7202 27.0078 16.9046L35.1186 8.79682C36.8934 10.7634 38.2369 13.0796 39.0625 15.5967ZM33.6926 7.38985L25.5928 15.4897C22.7614 12.3504 21.0615 8.35408 20.7639 4.13692L20.6479 2.52296C25.4565 2.42884 30.1208 4.16905 33.6926 7.38985ZM18.6539 2.66896L18.7689 4.27892C19.0991 8.97694 21.004 13.4262 24.1758 16.9076L21.0009 20.0826L8.30919 7.38985C11.1902 4.79053 14.8024 3.14207 18.6539 2.66896ZM6.89522 8.80382L19.5869 21.4965L16.42 24.6635C12.9353 21.4929 8.48318 19.5903 3.78329 19.2636L2.17233 19.1486C2.64607 15.2969 4.29515 11.6847 6.89522 8.80382ZM2.02733 21.1435L3.64129 21.2585C7.85957 21.5533 11.8582 23.2502 15.001 26.0794L6.89222 34.1892C3.67229 30.6166 1.93283 25.9523 2.02733 21.1435ZM8.29519 35.6172L16.42 27.4964C18.9968 30.3676 20.6339 33.958 21.1119 37.7862C18.9783 38.0988 16.8907 38.6695 14.895 39.4861C12.4561 38.656 10.2109 37.3399 8.29519 35.6172ZM44.6134 50.0179C44.5716 50.0634 44.5257 50.1049 44.4764 50.142L41.2554 52.5549C36.9737 55.7522 31.7755 57.4848 26.4318 57.4958H23.5698C18.2261 57.4848 13.028 55.7522 8.74618 52.5549L5.52925 50.142C5.08739 49.8106 4.99776 49.1839 5.32913 48.742C5.36613 48.6927 5.40775 48.6468 5.45325 48.605L8.30119 45.9901C10.337 44.1346 12.6692 42.6333 15.201 41.5482C15.3529 41.5198 15.496 41.4566 15.619 41.3632C24.4733 37.7062 34.6445 39.5105 41.7004 45.9901L44.5524 48.605C44.9593 48.9783 44.9867 49.6108 44.6134 50.0179ZM43.0474 44.516C41.3144 42.929 39.3797 41.5774 37.2935 40.4961H44.5864L46.7863 42.696L44.9843 46.296L43.0474 44.516ZM46.6073 50.5369C47.0116 49.6674 46.9518 48.6529 46.4483 47.8369L48.6183 43.496H54.3821L54.8271 44.386C52.7898 47.2376 49.9177 49.3868 46.6073 50.5369ZM56.0571 42.3791L55.9001 42.0491C55.7299 41.7084 55.381 41.4939 55.0001 41.4961H48.4143L46.1233 39.2051L47.8863 33.0343L50.9112 31.6393L56.4451 35.3282C56.7431 35.5267 57.1244 35.5507 57.4451 35.3912L57.968 35.1292C57.8804 37.6583 57.2274 40.1355 56.0571 42.3791Z" fill="black"/>
<path d="M34.0005 47.4959H33.0005V46.4959C33.0005 45.9437 32.5528 45.496 32.0005 45.496C31.4483 45.496 31.0006 45.9437 31.0006 46.4959V47.4959H29.0006V46.4959C29.0006 45.9437 28.5529 45.496 28.0006 45.496C27.4484 45.496 27.0007 45.9437 27.0007 46.4959V47.4959H25.0007V46.4959C25.0007 45.9437 24.553 45.496 24.0007 45.496C23.4485 45.496 23.0007 45.9437 23.0007 46.4959V47.4959H21.0008V46.4959C21.0008 45.9437 20.5531 45.496 20.0008 45.496C19.4486 45.496 19.0008 45.9437 19.0008 46.4959V47.4959H17.0009V46.4959C17.0009 45.9437 16.5531 45.496 16.0009 45.496C15.4487 45.496 15.0009 45.9437 15.0009 46.4959V47.4959H14.001C13.4487 47.4959 13.001 47.9437 13.001 48.4959C13.001 49.0481 13.4487 49.4959 14.001 49.4959H15.0009V50.4959C15.0009 51.0481 15.4487 51.4958 16.0009 51.4958C16.5531 51.4958 17.0009 51.0481 17.0009 50.4959V49.4959H19.0008V50.4959C19.0008 51.0481 19.4486 51.4958 20.0008 51.4958C20.5531 51.4958 21.0008 51.0481 21.0008 50.4959V49.4959H23.0007V50.4959C23.0007 51.0481 23.4485 51.4958 24.0007 51.4958C24.553 51.4958 25.0007 51.0481 25.0007 50.4959V49.4959H27.0007V50.4959C27.0007 51.0481 27.4484 51.4958 28.0006 51.4958C28.5529 51.4958 29.0006 51.0481 29.0006 50.4959V49.4959H31.0006V50.4959C31.0006 51.0481 31.4483 51.4958 32.0005 51.4958C32.5528 51.4958 33.0005 51.0481 33.0005 50.4959V49.4959H34.0005C34.5527 49.4959 35.0005 49.0481 35.0005 48.4959C35.0005 47.9437 34.5527 47.4959 34.0005 47.4959Z" fill="black"/>
</g>
<defs>
<clipPath id="clip0_1_3109">
<rect width="60" height="60" fill="white"/>
</clipPath>
</defs>
</svg>
