<svg width="60" height="60" viewBox="0 0 60 60" fill="none" xmlns="http://www.w3.org/2000/svg">
<g clip-path="url(#clip0_1_3011)">
<path d="M14 41C12.3432 41 11 42.3432 11 44C11 45.6568 12.3431 47 14 47C15.6569 47 17 45.6569 17 44C16.9981 42.3439 15.6561 41.0018 14 41ZM14 45C13.4477 45 13 44.5523 13 44C13 43.4477 13.4477 43.0001 14 43.0001C14.5523 43.0001 15 43.4477 15 44C14.9994 44.5521 14.5521 44.9994 14 45Z" fill="black"/>
<path d="M46 41C44.3432 41 43 42.3432 43 44C43 45.6568 44.3432 47 46 47C47.6568 47 49 45.6569 49 44C48.9982 42.3439 47.6561 41.0018 46 41ZM46 45C45.4477 45 45 44.5523 45 44C45 43.4477 45.4478 43.0001 46 43.0001C46.5523 43.0001 47 43.4477 47 44C46.9995 44.5521 46.5521 44.9994 46 45Z" fill="black"/>
<path d="M59.2378 26.7656L52.3492 19.0078C51.7785 18.3652 50.9596 17.9982 50.1001 18H41V12C40.9983 10.3439 39.6561 9.00176 38 9H3C1.34391 9.00176 0.00175791 10.3439 9.76602e-08 12V38C-0.00011709 38.2652 0.105234 38.5196 0.292852 38.7073C0.480352 38.8948 0.734766 39.0001 1.00008 39.0001H2.00004V42.0001C2.0018 43.6562 3.34395 44.9984 5.00004 45.0001H7.07988C7.57277 48.4431 10.5219 51.0001 14 51.0001C17.4782 51.0001 20.4273 48.4431 20.9202 45.0001H39.08C39.5729 48.4431 42.5221 51.0001 46.0002 51.0001C49.4783 51.0001 52.4275 48.4431 52.9204 45.0001H57C58.6561 44.9984 59.9982 43.6562 60 42.0001V28.7598C59.9993 28.024 59.728 27.3143 59.2378 26.7656ZM2.00004 37V12C2.00062 11.4479 2.44793 11.0005 3 11H38C38.5521 11.0006 38.9995 11.4479 39 12V37H2.00004ZM7.07988 43H5.00004C4.44797 42.9994 4.00055 42.5521 4.00008 42V39H9.11063C8.01211 40.0737 7.29832 41.4796 7.07988 43ZM14 49C11.2386 49 9 46.7613 9 43.9999C9 41.2385 11.2386 39 14 39C16.7614 39 19.0001 41.2386 19.0001 44C18.9968 46.76 16.76 48.9968 14 49ZM24 43H20.9201C20.7016 41.4796 19.988 40.0736 18.8895 39H24V43ZM33 43H26V39H33V43ZM39.0799 43H35V39H41.1105C40.012 40.0737 39.2984 41.4796 39.0799 43ZM46 49C43.2386 49 40.9999 46.7613 40.9999 43.9999C40.9999 41.2385 43.2384 38.9999 46 38.9999C48.7614 38.9999 51 41.2385 51 43.9999C50.9967 46.76 48.7601 48.9968 46 49ZM58 42C57.9994 42.5521 57.5521 42.9995 57 43H52.9201C52.4215 39.5602 49.4759 37.0062 46 37H40.9999V20H45V30C45.0018 31.6561 46.3439 32.9982 48 33H58V42ZM58 31H48C47.4479 30.9994 47.0005 30.5521 47 30V20H50.1001C50.3872 19.9984 50.6612 20.12 50.8526 20.334L57.7437 28.0948C57.9077 28.2776 57.9989 28.5142 58.0001 28.7598L58 31Z" fill="black"/>
</g>
<defs>
<clipPath id="clip0_1_3011">
<rect width="60" height="60" fill="white"/>
</clipPath>
</defs>
</svg>
