<svg width="60" height="60" viewBox="0 0 60 60" fill="none" xmlns="http://www.w3.org/2000/svg">
<g clip-path="url(#clip0_1_3125)">
<path d="M29.4196 23.5208C31.2523 20.2627 31.8432 16.4513 31.0832 12.7912C30.3231 9.13118 28.2634 5.87014 25.2851 3.61117C22.3067 1.35219 18.6111 0.248081 14.8817 0.503017C11.1522 0.757953 7.64127 2.35469 4.99801 4.99795C2.35475 7.64121 0.758014 11.1522 0.503078 14.8816C0.248142 18.611 1.35225 22.3066 3.61123 25.285C5.8702 28.2634 9.13124 30.323 12.7913 31.0831C16.4513 31.8432 20.2628 31.2522 23.5209 29.4196L29.5743 31.3403C29.82 31.4181 30.0822 31.4269 30.3326 31.3657C30.5829 31.3046 30.8116 31.176 30.9938 30.9938C31.176 30.8116 31.3047 30.5828 31.3658 30.3325C31.4269 30.0822 31.4181 29.8199 31.3404 29.5743L29.4196 23.5208ZM6.49664 12.0904C6.62587 11.9584 6.77989 11.8532 6.94985 11.7808C7.11981 11.7085 7.30239 11.6703 7.48711 11.6686C7.67184 11.6669 7.85508 11.7017 8.02635 11.771C8.19761 11.8402 8.35353 11.9426 8.48516 12.0722L10.4041 13.9573L15.044 9.31827C15.3077 9.05457 15.6653 8.90643 16.0383 8.90643C16.4112 8.90643 16.7688 9.05458 17.0325 9.31827C17.2962 9.58197 17.4444 9.93962 17.4444 10.3125C17.4444 10.6855 17.2962 11.0431 17.0325 11.3068L11.4075 16.9318C11.1455 17.194 10.7904 17.3421 10.4197 17.3438C10.049 17.3455 9.69264 17.2007 9.42816 16.9409L6.51495 14.079C6.38314 13.9496 6.2781 13.7956 6.20584 13.6256C6.13358 13.4557 6.09551 13.2732 6.09381 13.0885C6.09211 12.9038 6.12681 12.7206 6.19593 12.5494C6.26505 12.3781 6.36723 12.2222 6.49664 12.0904ZM24.3751 22.9687H7.50006C7.1271 22.9687 6.76941 22.8206 6.50569 22.5569C6.24196 22.2931 6.09381 21.9354 6.09381 21.5625C6.09381 21.1895 6.24196 20.8318 6.50569 20.5681C6.76941 20.3044 7.1271 20.1562 7.50006 20.1562H24.3751C24.748 20.1562 25.1057 20.3044 25.3694 20.5681C25.6331 20.8318 25.7813 21.1895 25.7813 21.5625C25.7813 21.9354 25.6331 22.2931 25.3694 22.5569C25.1057 22.8206 24.748 22.9687 24.3751 22.9687ZM24.3751 17.3437H17.9133C17.5403 17.3437 17.1826 17.1956 16.9189 16.9319C16.6552 16.6681 16.507 16.3104 16.507 15.9375C16.507 15.5645 16.6552 15.2068 16.9189 14.9431C17.1826 14.6794 17.5403 14.5312 17.9133 14.5312H24.3751C24.748 14.5312 25.1057 14.6794 25.3694 14.9431C25.6331 15.2068 25.7813 15.5645 25.7813 15.9375C25.7813 16.3104 25.6331 16.6681 25.3694 16.9319C25.1057 17.1956 24.748 17.3437 24.3751 17.3437ZM24.3751 11.7187H21.6633C21.2903 11.7187 20.9326 11.5706 20.6689 11.3069C20.4052 11.0431 20.257 10.6854 20.257 10.3125C20.257 9.93953 20.4052 9.58184 20.6689 9.31812C20.9326 9.05439 21.2903 8.90624 21.6633 8.90624H24.3751C24.748 8.90624 25.1057 9.05439 25.3694 9.31812C25.6331 9.58184 25.7813 9.93953 25.7813 10.3125C25.7813 10.6854 25.6331 11.0431 25.3694 11.3069C25.1057 11.5706 24.748 11.7187 24.3751 11.7187Z" fill="#E91515"/>
<path d="M22.5159 47.0944C23.7926 46.1121 24.7297 44.7548 25.1958 43.2129C25.6619 41.6711 25.6336 40.0219 25.1149 38.4969C24.5961 36.972 23.6129 35.6477 22.3033 34.7098C20.9937 33.772 19.4233 33.2677 17.8125 33.2677C16.2017 33.2677 14.6313 33.772 13.3217 34.7098C12.012 35.6477 11.0288 36.972 10.5101 38.4969C9.99133 40.0219 9.96302 41.6711 10.4291 43.2129C10.8952 44.7548 11.8323 46.1121 13.109 47.0944C11.5547 47.9407 10.2571 49.1901 9.35253 50.7113C8.44801 52.2325 7.97 53.9693 7.96875 55.7391V58.125C7.96885 58.4979 8.11704 58.8555 8.38074 59.1192C8.64444 59.383 9.00207 59.5311 9.375 59.5312H26.25C26.6229 59.5311 26.9806 59.383 27.2443 59.1193C27.508 58.8556 27.6562 58.4979 27.6562 58.125V55.7391C27.655 53.9693 27.177 52.2325 26.2724 50.7113C25.3679 49.1901 24.0703 47.9407 22.5159 47.0944ZM12.9117 40.9946C12.9117 40.0253 13.1991 39.0777 13.7376 38.2718C14.2761 37.4659 15.0415 36.8377 15.937 36.4668C16.8325 36.0959 17.8179 35.9988 18.7686 36.1879C19.7193 36.377 20.5925 36.8438 21.2779 37.5292C21.9633 38.2145 22.4301 39.0878 22.6192 40.0385C22.8083 40.9891 22.7112 41.9745 22.3403 42.87C21.9693 43.7655 21.3412 44.5309 20.5352 45.0694C19.7293 45.6079 18.7818 45.8954 17.8125 45.8954C16.5131 45.894 15.2674 45.3772 14.3486 44.4585C13.4298 43.5397 12.913 42.2939 12.9117 40.9946ZM24.8438 56.7187H10.7812V55.7391C10.7812 53.8743 11.522 52.0859 12.8407 50.7673C14.1593 49.4487 15.9477 48.7079 17.8125 48.7079C19.6773 48.7079 21.4657 49.4487 22.7843 50.7673C24.103 52.0859 24.8438 53.8743 24.8438 55.7391V56.7187Z" fill="black"/>
<path d="M50.7659 33.7901C52.8705 32.5289 54.5036 30.6123 55.4148 28.3342C56.3261 26.056 56.4652 23.5419 55.8109 21.1772C55.1565 18.8124 53.7449 16.7274 51.7922 15.2416C49.8396 13.7559 47.4536 12.9514 45 12.9514C42.5464 12.9514 40.1604 13.7559 38.2078 15.2416C36.2551 16.7274 34.8435 18.8124 34.1891 21.1772C33.5348 23.5419 33.6739 26.056 34.5852 28.3342C35.4964 30.6123 37.1295 32.5289 39.2341 33.7901C36.6331 34.9168 34.4179 36.7788 32.8607 39.1473C31.3035 41.5158 30.4721 44.2876 30.4688 47.1222V58.125C30.4688 58.4979 30.617 58.8556 30.8807 59.1193C31.1444 59.383 31.5021 59.5311 31.875 59.5312H58.125C58.4979 59.5312 58.8556 59.383 59.1193 59.1193C59.383 58.8556 59.5312 58.4979 59.5312 58.125V47.1222C59.5279 44.2876 58.6965 41.5158 57.1393 39.1473C55.5821 36.7788 53.3669 34.9168 50.7659 33.7901ZM36.5955 24.1864C36.5955 22.5241 37.0884 20.8992 38.0119 19.5171C38.9354 18.1349 40.248 17.0577 41.7837 16.4216C43.3195 15.7855 45.0093 15.6191 46.6397 15.9434C48.27 16.2676 49.7675 17.0681 50.9429 18.2435C52.1183 19.4189 52.9188 20.9164 53.243 22.5468C53.5673 24.1771 53.4009 25.867 52.7648 27.4027C52.1287 28.9384 51.0514 30.251 49.6693 31.1745C48.2872 32.098 46.6623 32.5909 45 32.5909C42.7718 32.5882 40.6356 31.7019 39.0601 30.1263C37.4845 28.5508 36.5981 26.4146 36.5955 24.1864ZM56.7188 56.7187H33.2812V47.1222C33.2812 44.0142 34.5159 41.0335 36.7136 38.8358C38.9113 36.6381 41.892 35.4034 45 35.4034C48.108 35.4034 51.0887 36.6381 53.2864 38.8358C55.4841 41.0335 56.7188 44.0142 56.7188 47.1222V56.7187Z" fill="black"/>
</g>
<defs>
<clipPath id="clip0_1_3125">
<rect width="60" height="60" fill="white"/>
</clipPath>
</defs>
</svg>
